<svg width="1867" height="1701" viewBox="0 0 1867 1701" fill="none" xmlns="http://www.w3.org/2000/svg">
<path d="M116 0V375C116 389.359 127.641 401 142 401H743.5C757.859 401 769.5 412.641 769.5 427V745C769.5 759.359 781.141 771 795.5 771H1160C1174.36 771 1186 759.359 1186 745V437.5C1186 423.141 1197.64 411.5 1212 411.5H1522C1536.36 411.5 1548 423.141 1548 437.5V841.123C1548 855.434 1559.57 867.055 1573.88 867.122L1839.12 868.378C1853.43 868.445 1865 880.066 1865 894.377V1055.5M1865 1051.5V1435C1865 1449.36 1853.36 1461 1839 1461H1263.5C1249.14 1461 1237.5 1472.64 1237.5 1487V1552.5C1237.5 1566.86 1225.86 1578.5 1211.5 1578.5H719.5C705.141 1578.5 693.5 1590.14 693.5 1604.5V1673C693.5 1687.36 681.859 1699 667.5 1699H-6.5" stroke="#FFEAB9" stroke-width="4"/>
</svg>
