<svg width="1753" height="1056" viewBox="0 0 1753 1056" fill="none" xmlns="http://www.w3.org/2000/svg">
<path d="M2 0V375C2 389.359 13.6406 401 28 401H372.5H629.5C643.859 401 655.5 412.641 655.5 427V745C655.5 759.359 667.141 771 681.5 771H1046C1060.36 771 1072 759.359 1072 745V437.5C1072 423.141 1083.64 411.5 1098 411.5H1408C1422.36 411.5 1434 423.141 1434 437.5V841.123C1434 855.434 1445.57 867.055 1459.88 867.122L1725.12 868.378C1739.43 868.445 1751 880.066 1751 894.377V1055.5" stroke="#FFEAB9" stroke-width="4"/>
</svg>
