<svg width="35" height="215" viewBox="0 0 35 215" fill="none" xmlns="http://www.w3.org/2000/svg">
<g opacity="0.96">
<path fill-rule="evenodd" clip-rule="evenodd" d="M0.371268 50.5405C0.573784 50.5405 0.675075 50.338 0.573817 50.068C0.472559 49.7979 0.472551 49.4942 0.607561 49.3929C0.708819 49.2579 0.877582 48.7516 0.945087 48.279C1.01259 47.7728 1.31637 47.1652 1.62014 46.8952C1.92391 46.6589 1.99143 46.5239 1.75516 46.6589C1.55264 46.7602 1.3501 46.7264 1.3501 46.5239C1.3501 46.3552 1.45138 46.1526 1.5864 46.0851C1.75516 46.0176 2.22767 45.5451 2.70021 45.0051C3.17274 44.465 3.34153 44.1275 3.10526 44.2625C2.46396 44.6338 2.63273 44.0937 3.44279 43.1824C3.88157 42.7099 3.98281 42.4736 3.71278 42.6086C3.274 42.8786 3.274 42.8449 3.71278 42.2373C3.98281 41.8998 4.35408 41.4948 4.5566 41.3598C4.72536 41.2248 4.92787 40.9547 4.92787 40.7522C5.02913 39.9759 5.09664 39.9422 5.40042 40.4147C5.63668 40.7522 5.73793 40.786 5.77169 40.5159C5.80544 40.2797 5.83921 39.9422 5.87296 39.7396C5.87296 39.5709 6.00795 39.4359 6.10921 39.5034C6.48049 39.6384 7.76311 38.322 7.56059 38.0183C7.45933 37.8495 7.62808 37.6132 7.96561 37.4782C8.26938 37.377 8.94444 36.8369 9.45073 36.2969C9.95702 35.7906 10.6321 35.3518 10.9359 35.3518C11.2396 35.3518 11.5096 35.2168 11.5096 35.0143C11.5434 34.8455 11.5772 34.5418 11.6109 34.373C11.6109 34.2042 11.7797 33.9342 11.9484 33.7654C12.1509 33.5967 12.1509 33.6979 11.9822 33.968C11.7797 34.3392 11.8472 34.4067 12.286 34.238C12.6235 34.103 12.9272 34.0017 13.0285 34.0017C13.096 34.0017 13.0623 33.7654 12.961 33.4954C12.826 33.1916 12.9947 32.8879 13.366 32.7529C13.7373 32.6178 14.3111 32.2466 14.6486 31.909C14.9862 31.6053 15.3912 31.4028 15.5262 31.4703C15.6612 31.5715 15.8637 31.2002 15.965 30.694C16.1338 29.9851 15.965 29.6139 15.2562 29.0401C14.7499 28.6013 14.2098 28.2638 14.0073 28.2638C13.6023 28.2638 12.1509 26.6099 12.1509 26.1374C12.1509 25.9348 12.0497 25.9011 11.9147 26.0023C11.8134 26.1373 11.3746 25.8673 10.9359 25.3948C10.4971 24.9223 10.0583 24.686 9.95702 24.8885C9.85576 25.091 9.55201 25.226 9.3495 25.1923C9.04572 25.1923 9.04572 25.1248 9.3495 24.9898C9.65327 24.8885 9.687 24.6522 9.45073 24.2472C9.28197 23.9097 9.21445 23.5384 9.31571 23.4709C9.41697 23.3696 9.11319 23.2009 8.64066 23.0659C7.96561 22.8971 7.69559 22.5258 7.42557 21.412C7.25681 20.6357 6.85177 19.5893 6.6155 19.0831C6.17672 18.2392 6.17674 18.1042 6.68303 17.8005C7.05431 17.598 7.08807 17.4629 6.81805 17.4629C6.48052 17.4629 6.41299 17.0917 6.6155 15.8766C6.91928 13.7839 7.25681 12.9063 8.10062 11.995C8.4719 11.59 8.77568 11.0499 8.77568 10.8137C8.77568 10.5774 8.91069 10.3749 9.1132 10.3749C9.28197 10.3749 9.45073 10.1386 9.45073 9.83485C9.45073 9.36231 9.55199 9.36232 9.95702 9.69984C10.227 9.93611 10.4971 10.0036 10.4971 9.83485C10.6996 8.28223 11.2396 7.30341 11.7122 7.50592C12.0835 7.60718 12.1509 7.53968 12.0159 7.1684C11.8809 6.79712 12.1172 6.5271 12.691 6.32458C13.1635 6.12207 13.9061 5.75079 14.2774 5.44701L15.0199 4.90697L14.2436 5.14324C13.4673 5.37951 13.4336 5.3795 14.0749 4.73821C14.4124 4.36693 14.7836 4.23191 14.8849 4.36692C14.9861 4.50194 15.3574 4.43443 15.695 4.16441C16.1337 3.82688 16.5388 3.79313 16.9438 3.99564C17.2814 4.19816 17.5851 4.16442 17.7201 3.9619C17.8214 3.79314 17.6526 3.62437 17.3151 3.62437C16.8426 3.62437 16.8088 3.55686 17.1801 3.32059C17.4164 3.15183 17.5513 2.88181 17.4163 2.6793C17.3151 2.51053 17.5514 2.27426 17.9902 2.13925C19.1715 1.83548 19.2727 1.90298 18.9015 2.64554C18.5639 3.28684 18.5639 3.32059 19.1715 2.98307C19.6103 2.7468 19.779 2.37552 19.6778 2.00424C19.5765 1.59921 19.7453 1.3967 20.2516 1.36295C20.8254 1.29544 20.9266 1.43045 20.7241 2.00424C20.5891 2.47678 20.6566 2.61179 20.8929 2.47678C21.0954 2.34177 21.2641 1.9705 21.2641 1.59922C21.2641 1.26169 21.5004 0.890405 21.8042 0.789148C22.1417 0.654137 22.243 0.721647 22.0742 1.02542C21.9392 1.22794 22.1417 1.12667 22.5468 0.789148C22.9518 0.417869 23.3906 0.24911 23.5256 0.350368C23.6268 0.485378 23.9306 0.417875 24.2006 0.21536C24.5044 -0.0884137 24.6394 -0.0546611 24.6394 0.21536C24.6394 0.417875 24.4706 0.58664 24.3019 0.58664C23.5593 0.58664 24.0319 1.19418 24.9094 1.36295C25.652 1.49796 25.8882 1.73422 25.8545 2.34177C25.8207 3.15183 24.977 4.26567 24.5382 4.06315C24.4032 3.99565 24.3019 4.19816 24.3019 4.53569C24.3019 4.87321 23.9981 5.34575 23.6268 5.54827C23.053 5.91954 23.0193 5.88579 23.1881 5.3795C23.3231 5.00822 23.0868 5.14324 22.4455 5.75078C21.9392 6.25707 21.3654 6.66211 21.2304 6.66211C21.0616 6.66211 20.9266 6.89838 20.9266 7.1684C20.9266 7.43842 20.7579 7.67469 20.5216 7.67469C20.2853 7.67469 19.7453 8.04596 19.2727 8.48475C18.7664 8.95728 18.1926 9.36231 17.9226 9.42982C17.1463 9.59858 16.2012 10.6787 16.2012 11.3875C16.2012 11.7588 16.0663 12.0625 15.9313 12.0625C15.7625 12.0625 15.4587 12.4338 15.2562 12.9063C14.7499 13.9864 14.7499 14.1889 15.1887 13.9189C15.4924 13.7164 15.6612 14.3914 15.5599 15.3703C15.5262 15.5728 15.6275 15.7753 15.7625 15.7753C15.9313 15.7753 16.0662 15.3365 16.0325 14.7627C16.0325 14.2227 15.9312 13.7502 15.7962 13.7502C15.3912 13.7502 15.4925 12.8051 15.9313 12.5351C16.1675 12.3663 16.2012 12.4338 16.0325 12.7376C15.83 13.0751 15.9313 13.1426 16.4375 13.0076C16.9438 12.8726 17.1126 12.9738 17.0451 13.3789C17.0113 13.6826 17.2476 14.1214 17.6189 14.3577C17.9564 14.594 18.1252 14.9652 18.0239 15.1678C17.8889 15.404 17.9564 15.4378 18.1589 15.3028C18.3614 15.1678 18.7327 15.3703 18.969 15.7753C19.2053 16.1466 19.644 16.4504 19.9816 16.4504C20.2853 16.4504 20.7579 16.7204 20.9941 17.0917C21.2304 17.4292 21.5679 17.733 21.7704 17.7667C21.9392 17.7667 22.378 18.0367 22.7155 18.3405C23.0868 18.6105 23.4243 18.7793 23.5256 18.7118C23.5931 18.6105 24.0318 18.9143 24.5044 19.3868C24.9769 19.8594 25.5507 20.1294 25.8207 20.0619C26.057 19.9606 26.3608 20.0956 26.4621 20.3657C26.5633 20.6357 26.9008 20.8382 27.1708 20.8382C27.4746 20.8382 27.6096 21.007 27.5084 21.1757C27.4071 21.3782 27.5084 21.5133 27.7447 21.5133C28.0484 21.5133 28.0484 21.6145 27.6771 21.8508C27.2721 22.1208 27.3396 22.1883 27.9472 22.1883C28.4535 22.1883 28.8247 22.4246 28.926 22.8634C29.0273 23.2346 29.2297 23.4372 29.3985 23.3359C29.7023 23.1671 29.9723 24.0447 30.1748 25.8336C30.2423 26.6099 30.1411 26.9137 29.7698 26.9137C29.3985 26.9137 29.331 26.6436 29.466 25.7323C29.7361 24.1459 29.466 24.2472 29.0272 25.8673C28.8247 26.6099 28.4197 27.5212 28.0822 27.9262C27.5421 28.6013 27.4409 28.6351 27.0358 28.1288C26.6308 27.6562 26.6646 27.5887 27.2721 27.5887C27.6434 27.5887 28.0147 27.3525 28.1159 27.1162C28.2509 26.7449 28.1497 26.6774 27.7447 26.7787C27.2384 26.9474 27.2383 26.9137 27.7109 26.5086C28.2509 26.0698 28.2172 25.0573 27.6771 25.3948C27.5084 25.496 27.4409 25.1923 27.5084 24.686C27.5421 24.146 27.4409 23.9097 27.2046 23.9772C26.9683 24.0784 26.7996 23.8422 26.7996 23.5047C26.7996 22.7283 26.9346 22.6946 27.8122 23.4709C28.3522 23.9097 28.4197 23.9097 28.0822 23.5047C27.8797 23.2009 27.7784 22.8634 27.9134 22.7621C28.0147 22.6271 27.8122 22.5258 27.4071 22.5258C26.5971 22.5258 26.1245 23.0996 26.2933 24.0109C26.3608 24.4835 26.2595 24.5847 25.8207 24.416C25.3482 24.2472 25.2807 24.3485 25.4157 24.9223C25.517 25.3273 25.4832 26.0024 25.3145 26.4411C25.1119 26.9474 25.1119 27.2512 25.3145 27.2512C25.517 27.2512 25.652 27.0487 25.652 26.7787C25.652 25.8336 26.1583 25.9686 26.192 26.9474C26.2258 27.4537 26.0908 27.825 25.9558 27.7237C25.787 27.6225 25.652 27.7237 25.652 27.9262C25.652 28.1625 25.9558 28.3988 26.327 28.5C27.1371 28.7026 27.1708 28.9051 26.4958 29.8164C26.2258 30.2214 26.1245 30.6265 26.2258 30.7615C26.3271 30.8627 26.2596 30.964 26.057 30.964C25.8208 30.964 25.652 31.1327 25.652 31.3015C25.652 31.504 26.0233 31.4703 26.5971 31.1665C27.2384 30.829 27.5421 30.3902 27.6096 29.7489C27.6772 28.8038 28.3522 27.7237 28.3522 28.5338C28.3522 28.8713 28.521 28.8713 29.0948 28.5675C29.6123 28.2975 29.6573 28.3988 29.2297 28.8713C28.8922 29.2763 28.4535 29.5126 28.3184 29.4114C28.1497 29.3101 28.0147 29.4789 28.0147 29.7826C28.0147 30.1202 28.1497 30.2214 28.4197 30.0526C28.656 29.9176 28.2847 30.3902 27.5759 31.099C26.9008 31.8415 26.327 32.5503 26.327 32.7191C26.327 32.8879 25.9558 33.1579 25.4832 33.3267C25.0107 33.4954 24.6732 33.8329 24.7069 34.0692C24.7744 34.3055 24.6394 34.508 24.4706 34.508C23.6606 34.643 22.9518 35.1155 22.9518 35.6218C22.9518 35.8918 22.8843 36.0606 22.783 35.9594C22.6142 35.7906 19.7453 38.4908 19.509 38.9971C19.3065 39.5371 17.3489 41.326 17.1126 41.191C16.9776 41.1235 16.7075 41.461 16.505 42.0011C16.3363 42.5074 15.5937 43.5537 14.8849 44.2962C13.096 46.1526 12.961 46.9965 14.1761 48.2116C14.7161 48.7516 15.3237 49.1904 15.5262 49.1904C15.7287 49.1904 15.83 49.3254 15.695 49.4942C15.5937 49.6629 15.8637 49.8654 16.2688 49.9329C16.7076 50.0004 17.0451 50.2367 17.0451 50.473C17.0451 50.7092 17.4838 51.1818 18.0576 51.5531C19.1715 52.2956 19.7453 52.4306 19.4077 51.8906C19.0027 51.2493 20.2178 51.5531 20.6904 52.2281C20.9604 52.5994 21.2642 52.8019 21.3654 52.6669C21.6354 52.4306 24.3019 54.2195 24.3019 54.6246C24.3019 54.7933 24.5381 54.9283 24.8419 54.9283C25.5845 54.9283 27.1033 56.1772 26.6646 56.4472C26.4958 56.5484 26.327 56.8522 26.327 57.0547C26.327 57.3585 26.3946 57.3585 26.5971 57.0547C26.7658 56.7847 27.0021 56.7847 27.4746 57.156C27.8459 57.426 27.9471 57.6285 27.7109 57.6285C27.4746 57.6285 27.4071 57.7973 27.5084 57.966C27.6434 58.1686 27.9472 58.2698 28.251 58.2361C29.061 58.0673 29.601 59.1811 29.1285 59.9912C28.7572 60.5312 28.791 60.5987 29.2635 60.43C29.6011 60.295 29.7361 60.3625 29.6011 60.565C29.466 60.7675 29.601 61.105 29.8711 61.3413C30.2423 61.6451 30.2761 61.8813 30.0398 62.1851C29.8373 62.4214 29.7023 62.7589 29.736 62.8939C29.7698 63.0627 29.7698 63.4677 29.736 63.8052C29.7023 64.379 29.6348 64.3791 29.196 63.9065C28.4534 63.164 27.3396 63.8728 27.3734 65.0541C27.3734 65.8304 27.4071 65.8304 27.6771 65.2229C27.9134 64.6491 27.9809 64.6491 27.9809 65.1554C28.0147 65.4591 28.0484 65.8304 28.0822 65.9654C28.1497 66.0667 27.9134 66.2017 27.6096 66.2692C27.2721 66.3029 26.9683 66.0329 26.8333 65.4929C26.6646 64.7166 26.597 64.6828 25.8545 65.1554C25.1119 65.6616 25.0782 65.6279 25.247 64.8516C25.3482 64.2103 25.2807 64.0753 24.8757 64.244C24.0994 64.5141 24.7069 65.8979 25.6182 65.9317C26.8333 65.9992 26.7658 66.3029 25.517 66.5392C24.9094 66.6742 24.1669 67.0117 23.9306 67.3493C23.5256 67.8556 23.5256 67.8893 23.9981 67.518C24.6394 67.0117 27.1033 66.6742 26.8333 67.113C26.6983 67.2818 26.3945 67.4168 26.1245 67.4168C25.8545 67.4168 25.5507 67.653 25.4495 67.9231C25.3145 68.1931 25.0444 68.4294 24.8082 68.4294C24.5719 68.4294 24.3019 68.7331 24.2006 69.1044C24.0994 69.5432 23.6268 69.847 22.9855 69.982C22.378 70.117 21.973 70.2858 22.0405 70.3533C22.1417 70.4208 21.5342 71.1971 20.7241 72.0746C19.8465 73.0197 19.4077 73.7285 19.6103 73.8635C20.0828 74.1336 19.5765 74.4373 18.8002 74.3361C18.2939 74.2348 18.0576 74.5723 18.1927 75.2811C18.2264 75.4499 18.0914 75.4837 17.9226 75.3824C17.4838 75.1124 16.775 76.0912 17.0788 76.5637C17.2476 76.8675 17.1463 76.9013 16.7751 76.7663C16.0663 76.4962 15.6274 77.1713 16.235 77.5763C16.6063 77.8126 16.6063 77.8801 16.2688 77.8801C16.0325 77.8801 15.7287 78.2176 15.5599 78.6564C15.1549 79.7365 16.5388 82.2679 17.5514 82.2679C17.7539 82.2679 17.8551 82.4029 17.7539 82.5379C17.6864 82.6729 17.8889 82.8417 18.2601 82.8417C18.5977 82.8755 19.1377 83.1455 19.4415 83.4155C19.7115 83.7193 20.1165 83.9556 20.2853 83.9556C20.7916 83.9556 21.9392 85.1031 21.9392 85.6432C21.9392 85.9807 22.0405 86.0145 22.2092 85.7782C22.378 85.5082 22.7492 85.7107 23.323 86.352C23.8293 86.892 24.1331 87.3308 23.9981 87.3308C23.8968 87.3308 24.0319 87.4996 24.3019 87.6683C24.7407 87.9384 24.7069 88.0059 24.2006 88.0059C23.8969 88.0059 23.6268 88.2084 23.6268 88.4446C23.6268 88.7147 23.4918 88.6809 23.2893 88.3434C23.053 87.9721 22.9518 87.9384 22.9518 88.2759C22.9518 88.5459 23.2555 88.8159 23.6268 88.9172C23.9981 89.0184 24.3019 89.2547 24.3019 89.4235C24.3019 89.5922 24.1331 89.626 23.9643 89.5247C23.7618 89.3897 23.6268 89.6935 23.6268 90.166C23.6268 90.6386 23.7618 91.0774 23.9643 91.0774C24.1331 91.1111 24.5044 91.1449 24.7069 91.1786C25.1457 91.2461 25.112 92.0562 24.7069 92.3937C24.5719 92.495 24.4369 92.8325 24.3694 93.2038C24.3019 93.5413 23.9306 94.1489 23.5593 94.5539C23.1543 94.9252 22.9518 95.0602 23.0868 94.8576C23.2218 94.6214 23.1543 94.4189 22.9518 94.4189C22.6817 94.4189 22.6142 94.7226 22.7493 95.1952C22.8843 95.7352 22.7155 96.1065 22.2767 96.444C21.9392 96.6803 21.7367 97.0516 21.838 97.2203C21.9392 97.3891 21.5342 97.9629 20.9604 98.4692C20.3866 99.0092 19.914 99.6505 19.914 99.9205C19.914 100.191 19.6103 100.663 19.239 101.001C18.8677 101.338 18.5639 101.946 18.5639 102.351C18.5639 102.79 18.3277 103.195 18.0576 103.33C17.7876 103.431 17.5514 103.667 17.5514 103.87C17.5514 104.072 17.6864 104.173 17.8214 104.072C17.9564 104.005 18.1252 104.376 18.1589 104.916C18.1927 105.523 18.0577 105.895 17.8214 105.895C17.5514 105.928 17.6189 106.097 17.9564 106.367C18.2939 106.604 18.5639 106.941 18.5639 107.076C18.5639 107.481 20.9604 110.654 22.2767 112.004C24.3019 114.063 25.7195 116.021 25.517 116.527C25.4157 116.797 25.4832 117.101 25.6857 117.202C25.8545 117.337 25.922 117.573 25.8207 117.742C25.6857 117.911 25.8545 118.046 26.1245 118.046C26.3945 118.046 26.6983 118.181 26.7996 118.349C27.1371 118.856 26.6308 119.733 26.057 119.733C25.6182 119.733 25.652 119.835 26.192 120.24C26.5295 120.51 26.6646 120.746 26.4958 120.746C26.2933 120.746 26.327 120.847 26.5295 121.016C27.0358 121.353 26.2933 124.324 25.7532 124.222C25.517 124.155 25.4157 124.357 25.517 124.729C25.652 125.134 25.517 125.066 25.0107 124.492C24.2006 123.615 24.1331 123.716 24.6731 124.931C25.0107 125.606 24.9432 125.944 24.3019 126.821C23.7281 127.631 23.4581 127.8 23.2555 127.429C23.0868 127.193 23.053 126.72 23.1543 126.416C23.2555 126.079 23.1881 125.809 23.0193 125.809C22.513 125.809 22.3442 126.585 22.7155 127.193C23.053 127.733 22.378 129.859 21.9054 129.859C21.7704 129.859 21.6017 130.129 21.5342 130.467C21.3317 131.175 20.2516 131.344 20.2516 130.635C20.2516 130.399 20.0828 130.197 19.8803 130.197C19.7115 130.197 19.6103 130.332 19.7115 130.5C19.8128 130.669 19.5765 130.872 19.2052 130.973C18.7552 131.085 18.7102 130.939 19.0702 130.534C19.6778 129.859 21.0616 129.353 20.6904 129.927C20.5891 130.163 20.6566 130.197 20.8591 130.062C21.0954 129.927 21.2304 129.42 21.2304 128.914C21.1966 128.34 21.1291 128.205 21.0279 128.61C20.9266 128.982 20.5553 129.184 19.8803 129.184C19.3402 129.184 18.9352 129.285 18.9352 129.454C19.0365 130.095 18.8677 130.568 18.5977 130.399C18.4289 130.264 18.3277 130.467 18.3952 130.77C18.4627 131.108 18.5302 131.58 18.5302 131.817C18.5639 132.323 19.644 132.357 20.1841 131.817C20.4203 131.58 20.5891 131.547 20.5891 131.682C20.5891 132.188 19.1377 133.268 18.6989 133.099C18.3952 132.998 18.3277 133.234 18.3952 133.943C18.4964 134.517 18.3952 134.854 18.2264 134.753C18.0239 134.618 17.8889 134.821 17.8889 135.192C17.8889 135.53 17.6189 136.103 17.2814 136.475C16.9438 136.846 16.7075 137.318 16.8088 137.555C16.8763 137.757 16.775 138.736 16.5725 139.715C16.235 141.2 16.2687 141.504 16.7075 141.74C16.9776 141.909 17.2138 142.213 17.2138 142.449C17.2138 142.685 17.4839 143.023 17.8214 143.191C18.9352 143.799 21.2641 145.52 22.6142 146.769C23.323 147.444 23.9981 147.95 24.0656 147.883C24.2344 147.714 25.9895 149.942 25.9895 150.279C25.9895 150.381 26.2933 150.786 26.6646 151.191C27.1708 151.731 27.2384 152.035 26.9683 152.372C26.6646 152.71 26.6983 152.811 27.1034 152.811C27.7109 152.811 28.1159 153.722 27.6434 154.026C27.4071 154.161 27.4409 154.363 27.6771 154.667C27.9472 155.005 27.9471 155.309 27.7109 155.815C27.5084 156.186 27.3396 156.794 27.3396 157.165C27.3396 157.536 27.1033 158.043 26.8333 158.346C26.5633 158.616 26.327 159.055 26.327 159.291C26.327 159.629 26.2258 159.595 25.9895 159.224C25.7195 158.819 25.652 158.853 25.652 159.494C25.652 159.933 25.4832 160.236 25.2132 160.169C25.0107 160.101 24.8082 160.169 24.8082 160.304C24.8082 160.776 23.5256 161.89 23.1881 161.688C22.9855 161.553 22.918 161.755 23.0193 162.16C23.2556 163.004 21.1966 165.164 20.5553 164.759C20.3191 164.624 20.2516 164.658 20.3866 164.894C20.4878 165.097 20.3866 165.468 20.1165 165.704C19.8803 165.974 19.4077 166.649 19.104 167.257C18.8002 167.865 18.4289 168.337 18.2939 168.337C18.1589 168.337 18.0576 168.843 18.0576 169.485C18.0576 170.126 18.1589 170.565 18.2601 170.497C18.5977 170.295 19.2727 171.24 19.0027 171.476C18.9015 171.611 18.969 171.712 19.2052 171.712C19.4415 171.712 19.914 172.05 20.2853 172.489C20.6566 172.961 20.8929 173.062 20.9266 172.759C20.9266 172.185 22.4117 173.096 23.4581 174.311C23.8293 174.75 24.3356 175.088 24.5382 175.088C25.0782 175.088 25.787 176.37 25.8883 177.45C25.922 177.923 26.1245 178.328 26.327 178.395C26.4958 178.463 26.5633 178.699 26.4283 178.902C26.2933 179.104 26.4283 179.172 26.7658 179.037C27.1371 178.902 27.3396 179.104 27.5084 179.779C27.7784 181.096 27.3734 182.547 26.4283 183.492C26.0233 183.931 25.652 184.437 25.652 184.606C25.652 184.775 25.4832 184.808 25.3144 184.707C25.1119 184.606 24.9769 184.336 24.9769 184.167C24.9769 183.965 25.1119 183.897 25.2807 184.032C25.652 184.235 26.4958 182.918 26.192 182.614C26.0907 182.479 26.192 182.176 26.3946 181.906C26.8671 181.332 27.0358 180.488 26.6983 180.488C26.5295 180.488 26.1245 180.893 25.787 181.366C25.4495 181.838 24.9769 182.446 24.7407 182.682C24.5044 182.918 24.4369 183.222 24.5719 183.391C24.7069 183.559 24.5044 183.458 24.1668 183.188C23.7956 182.918 23.5931 182.851 23.7281 183.087C23.8631 183.289 23.7618 183.694 23.4918 183.965C23.2218 184.235 23.053 184.538 23.1543 184.64C23.2893 184.741 23.1543 185.146 22.8843 185.517C22.6143 185.922 22.2767 186.125 22.1755 185.99C22.0405 185.888 21.9392 185.956 21.9392 186.158C21.9392 186.361 22.243 186.496 22.6142 186.462C23.0193 186.428 23.2556 186.226 23.1881 185.888C23.1543 185.585 23.3231 185.416 23.6943 185.483C24.3694 185.585 24.5044 185.011 23.8631 184.775C23.5593 184.64 23.5931 184.505 23.9643 184.235C24.3356 183.965 24.5719 184.066 24.8757 184.64C25.2132 185.281 25.1457 185.551 24.4369 186.462C23.9981 187.036 23.6268 187.677 23.6268 187.846C23.6268 188.015 23.3905 188.352 23.1205 188.589C22.8168 188.825 22.6142 188.859 22.6142 188.656C22.6142 188.487 22.3442 188.217 22.0067 188.082C21.5679 187.914 21.5342 187.981 21.838 188.285C22.0405 188.487 22.1417 188.892 22.0405 189.129C21.9392 189.399 22.108 189.669 22.378 189.804C22.783 189.939 22.8168 190.209 22.6142 190.985C22.4455 191.525 22.4117 191.964 22.5467 191.964C22.6818 191.964 22.7493 192.47 22.7493 193.044C22.7155 193.685 22.513 194.124 22.3105 194.09C22.1079 194.023 21.9392 194.158 21.9392 194.36C21.9392 194.563 22.243 194.63 22.6142 194.495C23.2893 194.293 23.458 194.563 23.323 195.609C23.2893 195.845 23.4581 195.98 23.6943 195.947C23.8969 195.879 24.1331 196.014 24.1331 196.183C24.2681 197.229 24.7406 198.343 25.0107 198.208C25.1457 198.107 25.2132 198.343 25.1457 198.714C25.0782 199.153 25.1794 199.389 25.517 199.389C25.787 199.389 25.9557 199.524 25.8545 199.693C25.7195 199.862 25.8207 200.065 26.0232 200.132C26.2258 200.2 26.3946 200.672 26.3946 201.178C26.3946 201.685 26.6308 202.258 26.8671 202.461C27.1371 202.663 27.3396 203.136 27.3396 203.474C27.3396 203.845 27.4409 204.115 27.5759 204.115C27.7447 204.115 28.0147 204.486 28.2509 204.959C28.4535 205.431 28.4872 205.735 28.3522 205.634C28.1834 205.532 28.0147 205.634 27.9472 205.87C27.8797 206.072 27.6096 206.14 27.3733 206.005C27.1033 205.802 27.0696 205.634 27.3396 205.296C27.5759 204.992 27.5421 204.756 27.1708 204.452C26.7321 204.081 26.6645 204.216 26.6645 205.296C26.6645 206.376 26.5971 206.511 26.1245 206.106C25.7532 205.802 25.7195 205.6 25.9895 205.532C26.2258 205.431 26.1583 205.161 25.7532 204.689C25.2132 204.081 25.2132 204.014 25.7195 204.216C26.1245 204.351 26.2258 204.284 26.0908 203.912C25.7195 202.933 25.1457 203.474 25.2807 204.689C25.3145 204.891 25.1794 205.161 24.9769 205.296C24.8082 205.397 24.6394 205.667 24.6394 205.836C24.6394 206.039 24.7744 206.106 24.9432 205.971C25.1457 205.87 25.247 206.072 25.2132 206.444C25.1907 206.894 24.9769 206.905 24.5719 206.478C23.7618 205.634 23.7618 204.655 24.5382 204.925C25.0444 205.094 25.0107 205.026 24.4706 204.621C24.0656 204.284 23.7618 204.216 23.6943 204.452C23.6268 204.621 23.2893 204.79 22.9518 204.79C22.6142 204.79 22.2092 204.959 22.1079 205.127C21.9729 205.364 22.1755 205.431 22.7493 205.262C23.5593 205.06 23.6268 205.127 23.6268 206.14C23.6268 206.748 23.7618 207.119 23.9643 206.984C24.1669 206.849 24.3019 207.22 24.3019 207.861C24.3019 208.874 24.3356 208.908 24.7407 208.334C25.1119 207.861 25.2807 207.828 25.4832 208.165C25.652 208.469 25.6182 208.536 25.3482 208.368C25.1119 208.199 24.9094 208.503 24.7407 209.178C24.6394 209.785 24.3356 210.325 24.0994 210.427C23.8293 210.528 23.6268 210.865 23.6268 211.169C23.6268 211.574 23.6943 211.608 23.9306 211.27C24.1331 210.899 24.2681 210.933 24.4369 211.405C24.7069 212.148 24.1669 212.722 23.4581 212.418C23.0868 212.283 22.9518 212.013 23.1205 211.608C23.2893 211.169 23.2218 211.135 22.918 211.439C22.6142 211.743 22.648 212.08 23.0868 212.924C23.7618 214.274 23.7618 214.241 22.918 214.241C22.4792 214.241 22.3105 214.376 22.4792 214.679C22.6142 214.882 22.513 214.848 22.243 214.578C21.9729 214.308 21.5342 213.903 21.2641 213.667C20.8253 213.296 20.8254 213.262 21.3317 213.431C21.7704 213.566 21.8379 213.464 21.7029 212.924C21.6017 212.519 21.3654 212.215 21.1966 212.215C21.0279 212.215 20.9604 212.35 21.0954 212.519C21.1966 212.688 21.1291 212.924 20.9604 213.059C20.7578 213.161 20.7241 213.498 20.8254 213.802C20.9604 214.106 20.8929 214.274 20.7241 214.139C20.5216 214.038 20.184 214.207 19.9478 214.544C19.509 215.152 17.8889 215.152 17.8889 214.544C17.8889 214.376 17.6864 214.342 17.4501 214.443C17.1801 214.544 16.7075 214.207 16.3363 213.734C15.9987 213.262 15.425 212.891 15.0874 212.891C14.5136 212.891 14.5136 212.857 14.9862 212.35C15.4587 211.878 15.4249 211.743 14.6824 210.933C14.2098 210.427 13.8386 209.92 13.8386 209.819C13.8386 209.38 12.0834 207.76 11.5434 207.693C11.1721 207.625 10.8008 207.018 10.497 205.937C10.2608 205.026 9.7545 203.912 9.41698 203.474C8.70817 202.596 8.57314 201.921 9.14694 202.292C9.41696 202.427 9.45072 202.258 9.28196 201.718C9.14695 201.28 9.01193 200.773 8.97818 200.571C8.97818 200.402 8.74194 200.031 8.50567 199.794C7.96563 199.187 7.99937 198.647 8.57316 198.782C8.84318 198.849 9.07946 198.748 9.04571 198.546C9.04571 198.377 8.91068 198.242 8.77567 198.276C8.64066 198.309 8.40438 198.141 8.30312 197.871C8.20187 197.601 8.30316 197.364 8.50567 197.364C8.74194 197.364 8.74193 197.229 8.53942 196.959C8.2694 196.588 8.20187 194.36 8.43814 194.09C8.57315 193.922 8.67442 193.314 8.74192 192.605C8.77568 192.099 8.94443 191.964 9.28196 192.099C9.68699 192.234 9.75449 192.065 9.61948 191.255C9.45072 190.411 9.55198 190.175 10.1258 190.04C10.4971 189.939 10.8008 189.702 10.8008 189.534C10.8008 189.365 10.6658 189.297 10.497 189.399C10.362 189.5 10.2946 189.196 10.3958 188.757C10.4633 188.319 10.6996 187.981 10.9358 188.015C11.1384 188.049 11.3071 187.846 11.3071 187.576C11.3071 187.306 11.4421 186.867 11.5772 186.665C11.7459 186.395 11.6784 186.226 11.4759 186.226C11.2734 186.226 11.1721 186.091 11.3071 185.922C11.4084 185.72 11.2734 185.483 11.0033 185.315C10.7333 185.18 10.497 184.91 10.497 184.707C10.4633 184.538 10.3283 184.37 10.1258 184.37C9.95701 184.37 9.34946 183.931 8.77567 183.424C8.20188 182.884 7.5606 182.412 7.32433 182.378C6.34551 182.243 5.53542 181.163 6.41299 181.163C6.58175 181.163 6.75051 181.399 6.75051 181.703C6.75051 181.973 6.91927 182.108 7.12178 182.007C7.52681 181.737 6.54801 180.488 6.00797 180.589C5.83921 180.623 5.50169 180.353 5.29918 179.982C5.06291 179.61 4.82661 179.239 4.72536 179.138C4.6241 179.037 4.48911 178.53 4.45536 177.99C4.42161 177.417 4.25281 176.91 4.08405 176.775C3.88153 176.674 3.78031 176.1 3.78031 175.526C3.81406 174.716 3.94906 174.514 4.35409 174.649C4.82662 174.818 4.82662 174.784 4.35409 174.244C3.88155 173.771 3.84781 173.434 4.11784 172.59C4.2866 172.016 4.69161 170.632 5.02914 169.518C5.36667 168.371 5.7717 167.527 6.00797 167.561C6.24424 167.628 6.41299 167.426 6.41299 167.156C6.41299 166.886 6.64925 166.649 6.95302 166.649C7.22304 166.649 7.39181 166.514 7.29055 166.379C7.08803 166.042 8.30314 164.624 8.74193 164.624C8.91069 164.624 9.14696 164.219 9.24822 163.713C9.38322 163.24 9.85575 162.532 10.3283 162.194C10.7671 161.823 11.1384 161.35 11.1384 161.08C11.1384 160.844 11.3746 160.473 11.6784 160.203C12.1509 159.831 12.1509 159.764 11.6109 159.46C11.1721 159.19 11.1383 159.089 11.5096 158.853C11.8809 158.616 11.8809 158.549 11.4421 158.549C11.1384 158.549 10.6321 158.245 10.2945 157.874C9.95701 157.502 9.48449 157.199 9.21447 157.199C8.94445 157.199 8.80943 157.064 8.91069 156.895C9.01195 156.726 8.70817 156.321 8.23564 156.017C7.62809 155.612 7.42557 155.579 7.59433 155.882C7.72934 156.152 7.52684 156.017 7.18931 155.579C6.75053 155.039 6.34548 154.87 5.9067 155.005C5.46792 155.174 5.36668 155.14 5.6367 154.937C6.2105 154.532 5.36667 153.317 4.52285 153.317C4.11782 153.317 3.78028 152.946 3.57776 152.305C3.409 151.765 3.03775 150.786 2.76773 150.144C2.49771 149.537 2.26141 148.828 2.22766 148.626C2.1939 148.423 2.09267 148.085 1.95766 147.917C1.82265 147.714 1.78888 146.364 1.85639 144.879C1.95764 142.145 2.86898 138.804 3.64529 138.331C4.21909 137.993 5.40043 135.732 5.16416 135.462C5.02915 135.361 5.1304 135.26 5.36667 135.26C5.63669 135.26 5.70418 134.989 5.60292 134.517C5.50166 134.078 5.50166 133.943 5.60292 134.179C5.73793 134.483 6.00795 134.314 6.44673 133.572C6.81801 132.998 7.02053 132.391 6.95302 132.256C6.78426 131.986 8.37063 130.298 8.64065 130.467C9.14694 130.737 9.45073 130.433 9.24822 129.724C9.11321 129.184 9.21446 128.88 9.58574 128.745C11.0034 128.205 11.4759 124.762 10.2608 123.784C10.0245 123.547 9.8895 123.244 9.99076 123.075C10.092 122.906 9.99077 122.771 9.78825 122.771C9.58573 122.771 9.07947 122.4 8.67444 121.961C7.96563 121.218 7.76312 121.083 7.15557 121.083C7.02056 121.083 7.1218 120.948 7.39182 120.78C7.7631 120.543 7.76309 120.341 7.29055 119.7C6.98678 119.261 6.75052 119.058 6.75052 119.261C6.75052 119.43 6.95306 119.801 7.15557 120.037C7.4931 120.375 7.42559 120.375 6.81805 120.037C6.41301 119.767 6.10924 119.328 6.14299 119.025C6.2105 118.721 6.10924 118.484 5.97423 118.451C5.46794 118.417 4.75911 117.236 4.72536 116.459C4.72536 116.054 4.55661 115.616 4.35409 115.48C4.15157 115.345 4.08406 114.805 4.21907 114.13C4.38783 113.185 4.32033 113.017 3.88154 113.185C3.44276 113.354 3.34149 113.152 3.409 111.936C3.47651 109.776 4.11784 106.57 4.45536 106.772C4.59037 106.874 4.72536 106.367 4.72536 105.658C4.72536 104.815 4.82663 104.545 5.02914 104.815C5.26541 105.186 5.33292 105.186 5.50169 104.781C5.60294 104.511 5.50169 104.106 5.29918 103.87C4.99541 103.532 4.99541 103.498 5.29918 103.667C5.53545 103.802 5.73794 103.735 5.73794 103.566C5.73794 103.363 5.60293 103.195 5.40041 103.195C5.23165 103.195 5.16417 102.958 5.29918 102.655C5.43419 102.249 5.56918 102.249 5.73794 102.553C5.94045 102.823 6.10923 102.756 6.37925 102.249C6.64927 101.743 6.64928 101.507 6.31176 101.406C6.07549 101.271 6.10921 101.203 6.44673 101.203C6.78426 101.169 7.25681 100.596 7.56059 99.853C7.83061 99.1105 8.37065 98.2329 8.74193 97.8954C9.58574 97.0853 9.58574 95.4314 8.74193 95.4314C8.4044 95.4314 7.93187 95.1277 7.69561 94.7564C7.45934 94.3851 7.08805 94.0813 6.88554 94.0813C6.64927 94.0813 5.97422 93.4063 5.36667 92.5625C4.72537 91.7524 3.94907 91.0436 3.64529 91.0436C2.97024 91.0436 2.05892 89.4572 1.95766 88.1409C1.89016 87.6684 1.68764 87.162 1.45137 87.0945C1.21511 86.9933 1.08008 86.7908 1.18134 86.6558C1.2826 86.487 1.21508 86.2845 1.04632 86.1832C0.911308 86.082 0.877564 85.3732 1.01257 84.5631C1.18134 83.7868 1.21511 82.943 1.11385 82.7067C1.01259 82.4704 1.11384 82.2679 1.31636 82.2679C1.51887 82.2679 1.65389 82.1667 1.62014 82.0316C1.41762 81.3228 2.05891 79.5677 2.53144 79.5677C2.80146 79.5677 3.03773 79.399 3.03773 79.1964C3.03773 79.0277 3.20649 78.9602 3.37526 79.0614C3.61153 79.1964 3.67904 78.9939 3.51028 78.4201C3.37527 77.8801 3.44278 77.5426 3.64529 77.5426C3.84781 77.5426 4.11781 77.205 4.25282 76.8C4.52284 76.0237 4.55661 75.7874 4.65787 74.9436C4.69163 74.7073 4.89412 74.5048 5.09663 74.5048C5.36665 74.5048 5.33292 74.7073 5.02914 75.1124C4.75912 75.4499 4.89413 75.4161 5.36667 74.9774C5.7717 74.6061 6.14298 73.9985 6.21048 73.6948C6.24424 73.3572 6.48051 72.986 6.71677 72.851C6.95304 72.7159 7.08805 72.4459 7.0543 72.2772C6.91929 71.5684 7.12182 71.3996 7.66186 71.8384C7.99939 72.0746 8.16814 72.1422 8.03313 72.0071C7.89812 71.8384 8.03313 71.5008 8.37066 71.2308C8.73069 70.9158 8.71944 70.8145 8.33691 70.9271C7.96564 71.0283 7.79685 70.9946 7.93186 70.792C8.03312 70.5895 8.43817 70.4545 8.8432 70.4545C9.28199 70.4545 9.45075 70.2858 9.34949 69.982C9.21448 69.6445 9.31571 69.5432 9.65323 69.6782C9.95701 69.7795 10.1258 69.6445 10.1258 69.2394C10.1258 68.7331 10.1933 68.6994 10.4296 69.0707C10.7333 69.5432 11.4759 69.3069 11.4759 68.7331C11.4759 68.5306 11.2734 68.4969 11.0371 68.6319C10.7671 68.8344 10.7671 68.7331 11.1046 68.3281C11.4421 67.9231 11.7121 67.8556 12.1847 68.0918C12.691 68.3618 12.7585 68.3281 12.6235 67.9568C12.5222 67.6868 12.7247 67.3155 13.1635 67.0792C13.5348 66.8767 13.7711 66.573 13.6698 66.4042C13.5685 66.2354 13.636 66.0329 13.8386 65.8979C14.4461 65.5266 13.8386 65.0541 12.7922 65.0541C12.1509 65.0541 11.8134 64.8853 11.8134 64.5478C11.8134 64.244 11.5096 64.0415 11.1046 64.0415C10.3283 64.0415 8.43815 63.0289 8.43815 62.6239C8.43815 62.4889 8.2694 62.3539 8.03313 62.3539C7.83062 62.3539 7.12181 61.9489 6.51427 61.4763C5.67045 60.835 5.43418 60.4975 5.7042 60.2275C5.90671 60.025 6.07547 59.7212 6.07547 59.5524C6.07547 59.3837 5.83921 59.5187 5.53543 59.7887C4.89413 60.43 4.35408 60.1937 4.59034 59.3837C4.75911 58.9111 4.72535 58.8774 4.42158 59.3162C4.08405 59.7549 4.01656 59.7549 3.71278 59.3162C3.54402 59.0461 3.37526 58.9449 3.37526 59.0799C3.37526 59.2486 2.90273 59.0461 2.32894 58.6411C1.65388 58.1348 1.35013 57.6623 1.41763 57.156C1.45138 56.7847 1.38385 56.2447 1.21508 56.0084C1.08007 55.7721 1.01259 55.4684 1.11385 55.4009C1.21511 55.2996 1.08009 54.6921 0.810068 54.0508C0.540048 53.3757 0.405021 52.5319 0.540031 51.9918C0.708794 51.3843 0.675042 51.1818 0.371268 51.3505C0.168753 51.4856 -2.24608e-06 51.3843 -2.2328e-06 51.0805C-2.21952e-06 50.7768 0.168753 50.5405 0.371268 50.5405ZM3.10526 90.031C3.30778 90.031 3.274 89.8285 3.03773 89.5247C2.80146 89.2547 2.5652 89.0184 2.4977 89.0184C2.43019 89.0184 2.46393 89.2547 2.56519 89.5247C2.7002 89.7948 2.9365 90.031 3.10526 90.031ZM6.6155 41.3935C6.88552 41.191 7.02055 40.8872 6.88554 40.786C6.75053 40.6847 6.58177 40.786 6.51427 41.0222C6.41301 41.2248 6.17674 41.326 6.00798 41.2248C5.77171 41.0898 5.73795 41.1573 5.87296 41.3935C6.07548 41.6973 6.24422 41.6973 6.6155 41.3935ZM10.2945 70.5558C10.5983 70.4545 10.7671 70.2857 10.6658 70.2182C10.5646 70.117 10.362 70.1507 10.1595 70.2857C9.61948 70.5895 9.72075 70.792 10.2945 70.5558ZM13.366 105.422C13.6698 105.422 14.0073 105.591 14.1086 105.861C14.2099 106.199 14.1086 106.266 13.7035 106.131C13.366 105.996 13.1973 106.03 13.3323 106.232C13.4335 106.435 13.7711 106.57 14.0073 106.57C14.2773 106.57 14.4124 106.772 14.3111 107.009C14.1423 107.515 15.3574 108.932 15.965 108.899C16.2688 108.899 16.2688 108.831 15.9312 108.696C15.7287 108.629 15.5262 108.325 15.5262 108.055C15.5262 107.785 15.3237 107.481 15.0874 107.38C14.5474 107.177 14.5474 106.165 15.0874 105.49C15.2562 105.253 15.5599 104.815 15.695 104.545C15.9312 104.106 15.8975 104.106 15.4587 104.477C14.9862 104.848 14.9862 104.747 15.2899 103.532C15.4925 102.79 15.7625 102.351 15.8637 102.519C15.965 102.688 16.235 102.519 16.4713 102.182C16.8088 101.608 16.8088 101.507 16.3363 101.507C15.695 101.507 15.83 100.461 16.505 100.224C16.775 100.123 16.8763 100.224 16.7751 100.427C16.4375 100.933 17.6864 101.136 18.4289 100.697C19.4415 100.089 19.4078 99.4142 18.3277 99.4818C16.9101 99.583 16.64 99.5155 17.2138 99.1442C17.5176 98.9417 17.5514 98.8067 17.3151 98.8067C16.8088 98.8067 15.83 100.258 15.0199 102.182C14.6824 103.026 14.0411 104.072 13.6023 104.545C12.691 105.523 12.691 105.49 13.366 105.422ZM13.366 140.052C13.6698 139.614 13.8048 139.175 13.7035 139.074C13.6023 138.939 13.501 139.04 13.501 139.276C13.501 139.512 13.3323 139.58 13.1635 139.479C12.961 139.377 12.826 139.614 12.826 140.052L12.826 140.795L13.366 140.052ZM13.1635 142.516C13.3323 142.415 13.6023 142.753 13.7035 143.259C13.9398 144.103 13.9736 144.103 14.2098 143.529C14.5811 142.584 14.5811 142.28 14.2098 142.516C14.0411 142.618 13.8048 142.55 13.6698 142.348C13.4673 142.01 12.826 142.179 12.826 142.55C12.826 142.651 12.961 142.618 13.1635 142.516ZM13.8386 60.4975C14.0073 60.5988 14.1761 60.5313 14.1761 60.3625C14.1761 60.16 14.0073 59.9912 13.8386 59.9912C13.636 59.9912 13.501 60.0587 13.501 60.1262C13.501 60.2275 13.636 60.3962 13.8386 60.4975ZM16.6063 105.085C16.7413 105.186 16.7413 105.523 16.64 105.827C16.505 106.232 16.6063 106.199 16.9776 105.726C17.4839 105.051 17.3151 104.173 16.5388 103.701C16.1675 103.465 16.2688 104.713 16.6063 105.085ZM17.1126 134.753C17.4839 135.226 17.5851 135.26 17.4501 134.888C17.3489 134.584 17.4501 134.146 17.6526 133.909C17.9564 133.572 17.9564 133.437 17.6189 133.336C17.4164 133.234 17.2813 133.032 17.4163 132.863C17.5176 132.694 17.4163 132.559 17.2138 132.559C17.0113 132.559 16.9438 132.931 17.0788 133.504C17.2138 134.213 17.1801 134.314 16.91 133.909C16.7075 133.639 16.5388 133.572 16.5388 133.741C16.5725 133.943 16.8088 134.382 17.1126 134.753ZM17.2476 103.093C17.4501 102.79 17.7201 102.587 17.9226 102.688C18.0914 102.823 18.2264 102.587 18.2264 102.216C18.2264 101.372 17.3151 101.271 17.1126 102.114C16.8088 103.262 16.8763 103.735 17.2476 103.093ZM17.6864 193.989C17.7539 193.989 17.9226 193.753 18.0239 193.449C18.1251 193.179 18.0914 193.044 17.8889 193.145C17.5513 193.348 17.4163 193.989 17.6864 193.989ZM19.4077 98.6042C20.049 97.7266 19.7115 97.5579 18.8677 98.3342C18.4627 98.7055 18.3277 99.0092 18.5639 99.0767C18.7664 99.1442 19.1377 98.9417 19.4077 98.6042ZM18.5639 196.52C18.7664 196.655 18.9015 196.622 18.8677 196.453C18.7664 195.778 18.9352 195.609 19.4077 196.014C19.779 196.318 19.914 196.318 19.914 196.048C19.914 195.845 19.6778 195.575 19.4077 195.474C19.1377 195.339 19.0027 195.137 19.104 194.968C19.2052 194.799 19.2052 194.664 19.0702 194.664C18.9352 194.664 18.4964 195.44 18.2601 196.25C18.2264 196.284 18.3952 196.419 18.5639 196.52ZM19.1377 192.403C19.374 192.335 19.644 192.605 19.7453 192.976C19.8803 193.348 20.1166 193.652 20.3191 193.652C20.5216 193.652 20.5216 193.449 20.2516 193.145C19.914 192.74 19.914 192.639 20.3866 192.639C20.6903 192.639 20.9266 192.403 20.9266 192.133C20.9266 191.863 20.7578 191.626 20.5891 191.626C20.3866 191.626 20.2516 191.795 20.2516 191.998C20.2516 192.166 20.0828 192.234 19.8803 192.099C19.6103 191.964 19.644 191.795 19.9478 191.593C20.3191 191.356 20.3191 191.188 19.8128 190.715C19.3065 190.175 19.1715 190.175 18.9015 190.614C18.4627 191.289 18.6315 192.504 19.1377 192.403ZM19.6103 87.6683C19.8128 87.6683 19.8465 87.5333 19.7453 87.3308C19.644 87.162 19.374 86.9933 19.2052 86.9933C19.0027 86.9933 18.969 87.162 19.0702 87.3308C19.1715 87.5333 19.4415 87.6683 19.6103 87.6683ZM19.5765 189.432C19.9478 189.095 20.2516 188.69 20.2516 188.555C20.2516 188.049 19.2728 188.622 19.1377 189.196C19.0365 189.534 18.9689 189.837 18.9352 189.905C18.9352 189.972 19.2052 189.77 19.5765 189.432ZM20.0828 199.389C20.2853 199.558 20.4203 199.356 20.4203 198.917C20.4203 198.276 20.3191 198.242 19.6778 198.546C19.239 198.748 19.104 198.951 19.3403 199.018C19.5765 199.086 19.8803 199.254 20.0828 199.389ZM20.2516 187.745C20.4203 187.644 20.5891 187.34 20.5891 187.137C20.5891 186.901 20.4541 186.935 20.2516 187.239C19.8465 187.88 19.8465 188.015 20.2516 187.745ZM20.3866 195.643C20.7916 195.98 20.8591 195.947 20.7916 195.474C20.7241 195.137 20.5216 194.799 20.3191 194.732C19.7453 194.563 19.8128 195.17 20.3866 195.643ZM20.5891 90.031C20.7578 90.031 20.9266 89.9635 20.9266 89.896C20.9266 89.7948 20.7578 89.626 20.5891 89.5247C20.3866 89.4235 20.2516 89.491 20.2516 89.6598C20.2516 89.8623 20.3866 90.031 20.5891 90.031ZM20.5891 93.7438C20.7578 93.7438 20.9266 93.6763 20.9266 93.6088C20.9266 93.5076 20.7578 93.3388 20.5891 93.2375C20.3866 93.1363 20.2516 93.2038 20.2516 93.3725C20.2516 93.5751 20.3866 93.7438 20.5891 93.7438ZM20.8254 191.053C21.0616 191.019 21.1629 191.491 21.1291 192.268C21.1291 193.01 21.1967 193.516 21.3317 193.415C21.5004 193.348 21.6017 192.605 21.6017 191.761C21.6017 190.715 21.4667 190.31 21.2304 190.479C21.0279 190.58 20.7241 190.479 20.5216 190.242C20.2853 189.871 20.2516 189.939 20.3528 190.445C20.4203 190.816 20.6229 191.086 20.8254 191.053ZM21.2641 92.2249C21.4329 92.3262 21.6017 92.2587 21.6017 92.0899C21.6017 91.8874 21.4329 91.7187 21.2641 91.7187C21.0616 91.7187 20.9266 91.7862 20.9266 91.8537C20.9266 91.9549 21.0616 92.1237 21.2641 92.2249ZM21.6017 95.0939C22.0067 95.0939 22.2767 94.8577 22.2767 94.5539C22.2767 94.1151 22.1755 94.0813 21.838 94.3851C21.5679 94.5876 21.2642 94.6551 21.1629 94.5201C21.0279 94.4189 20.9266 94.4864 20.9266 94.6889C20.9266 94.9251 21.2304 95.0939 21.6017 95.0939ZM21.7704 211.81C21.8717 211.709 21.7029 211.507 21.3654 211.405C20.8929 211.203 20.8591 211.237 21.1629 211.574C21.3992 211.81 21.6692 211.912 21.7704 211.81ZM21.6017 89.1872C21.7704 89.0859 21.9392 88.7822 21.9392 88.5797C21.9392 88.3434 21.8042 88.3771 21.6017 88.6809C21.1966 89.3222 21.1966 89.4572 21.6017 89.1872ZM22.6818 200.605C22.8168 200.402 22.7493 200.132 22.5467 200.031C22.3442 199.896 22.2767 199.491 22.378 199.086C22.4792 198.681 22.4455 198.309 22.3105 198.242C22.1754 198.141 22.0405 198.411 22.0405 198.816C22.0067 199.221 21.8042 199.592 21.6017 199.659C21.3654 199.761 21.4667 200.031 21.838 200.402C22.243 200.773 22.513 200.841 22.6818 200.605ZM22.1417 184.538C22.4117 184.538 22.5467 184.403 22.4455 184.201C22.3442 184.032 22.513 183.863 22.8505 183.829C23.3906 183.829 23.3905 183.796 22.783 183.559C22.1755 183.323 21.8717 183.559 21.6354 184.471C21.6017 184.505 21.8379 184.538 22.1417 184.538ZM21.9392 196.689C22.1079 196.689 22.2767 196.622 22.2767 196.554C22.2767 196.453 22.1079 196.284 21.9392 196.183C21.7367 196.082 21.6017 196.149 21.6017 196.318C21.6017 196.52 21.7367 196.689 21.9392 196.689ZM22.2767 128.171C22.4455 128.171 22.6142 128.036 22.6142 127.834C22.6142 127.665 22.4455 127.496 22.2767 127.496C22.0742 127.496 21.9392 127.665 21.9392 127.834C21.9392 128.036 22.0742 128.171 22.2767 128.171ZM22.1417 193.213C22.2429 193.111 22.2767 192.808 22.1755 192.571C22.0742 192.301 21.9729 192.403 21.9729 192.774C21.9392 193.145 22.0404 193.348 22.1417 193.213ZM22.2767 207.153C22.4455 207.153 22.513 206.916 22.4117 206.646C22.2767 206.376 22.1417 206.14 22.0742 206.14C22.0067 206.14 21.9392 206.376 21.9392 206.646C21.9392 206.916 22.0742 207.153 22.2767 207.153ZM22.4455 208.503C22.7155 208.266 22.9518 207.929 22.9518 207.726C22.9518 207.524 22.7155 207.659 22.4455 208.03C21.8042 208.874 21.8042 209.043 22.4455 208.503ZM22.6142 213.903C23.188 213.903 23.2556 213.836 22.8843 213.431C22.5805 213.093 22.378 213.059 22.2092 213.363C21.8379 213.903 21.8717 213.903 22.6142 213.903ZM22.513 123.547C22.5805 123.311 22.5805 122.906 22.513 122.704C22.4117 122.467 22.3442 122.636 22.3442 123.109C22.3442 123.581 22.4117 123.75 22.513 123.547ZM23.6606 33.7654C24.1669 33.5292 24.6732 33.0566 24.7744 32.7191C24.8869 32.3816 24.7969 32.3928 24.5044 32.7529C24.2006 33.1241 23.9306 33.2254 23.7956 33.0229C23.5593 32.5841 22.7155 33.2254 22.7155 33.8329C22.7155 34.103 23.0193 34.103 23.6606 33.7654ZM23.1881 93.6763C23.8969 93.575 24.3356 93.0687 24.0994 92.6637C23.8293 92.2249 23.2893 92.3599 23.3568 92.8325C23.4243 93.035 23.2556 93.2038 23.0193 93.17C22.8168 93.1025 22.6142 93.2375 22.6142 93.4063C22.6142 93.6088 22.8843 93.7438 23.1881 93.6763ZM22.9518 158.38C23.1205 158.279 23.1881 157.975 23.053 157.705C22.8168 156.996 22.6142 157.064 22.6142 157.908C22.6142 158.279 22.7492 158.515 22.9518 158.38ZM23.6606 160.878C23.8293 160.608 23.9306 160.101 23.9306 159.73L23.8969 159.055L23.7281 159.73C23.6268 160.101 23.3231 160.54 23.0193 160.709C22.5805 160.945 22.5805 161.08 22.918 161.182C23.1543 161.249 23.4918 161.114 23.6606 160.878ZM23.1205 203.44C23.5593 203.811 23.5931 203.777 23.4243 203.305C23.3231 203.001 23.0868 202.765 22.918 202.765C22.4792 202.765 22.5467 202.967 23.1205 203.44ZM23.4581 124.796C23.7618 124.796 23.9644 124.492 23.9306 124.054C23.8968 123.48 23.8631 123.412 23.7281 123.885C23.6606 124.189 23.4243 124.459 23.2555 124.459C23.0868 124.459 22.9518 124.526 22.9518 124.627C22.9518 124.729 23.188 124.796 23.4581 124.796ZM24.3694 22.7958C24.5044 22.5596 24.4706 22.2221 24.3019 21.9858C24.0994 21.7833 24.0319 21.547 24.1331 21.4457C24.2344 21.3782 24.0994 21.277 23.8293 21.277C23.4918 21.277 23.4581 21.4795 23.7618 22.222C23.9644 22.8633 24.2006 23.0321 24.3694 22.7958ZM23.5931 66.7417C23.7956 66.7417 24.0319 66.6067 24.1331 66.4042C24.2344 66.2354 24.0993 66.0667 23.8293 66.0667C23.5256 66.0667 23.2893 66.2354 23.2893 66.4042C23.2893 66.6067 23.4243 66.7417 23.5931 66.7417ZM23.7956 119.97C24.0656 119.97 24.2006 119.835 24.0994 119.666C23.9981 119.497 23.7618 119.463 23.5931 119.565C23.1543 119.868 23.2218 119.97 23.7956 119.97ZM23.7618 157.131C24.0319 156.895 24.1669 156.625 24.1331 156.557C23.9306 156.389 23.2893 156.895 23.2893 157.232C23.2893 157.401 23.4918 157.367 23.7618 157.131ZM23.9643 154.498C24.1331 154.498 24.3019 154.431 24.3019 154.363C24.3019 154.262 24.1331 154.093 23.9643 153.992C23.7618 153.891 23.6268 153.958 23.6268 154.127C23.6268 154.33 23.7618 154.498 23.9643 154.498ZM25.5507 158.11C25.922 157.739 25.9895 157.536 25.7195 157.536C25.4832 157.536 25.3144 157.705 25.3144 157.908C25.3144 158.11 25.0782 158.178 24.7069 158.043C24.2344 157.874 24.2006 157.908 24.5719 158.245C24.9094 158.616 25.0782 158.583 25.5507 158.11ZM24.5044 201.651C24.6056 201.55 24.6394 201.246 24.5382 201.01C24.4369 200.74 24.3356 200.841 24.3356 201.212C24.3019 201.583 24.4031 201.786 24.5044 201.651ZM24.9769 153.655C25.1457 153.756 25.3144 153.688 25.3144 153.52C25.3144 153.317 25.1457 153.148 24.9769 153.148C24.7744 153.148 24.6394 153.216 24.6394 153.283C24.6394 153.385 24.7744 153.553 24.9769 153.655ZM24.9769 159.561C25.1457 159.561 25.3144 159.494 25.3144 159.426C25.3144 159.325 25.1457 159.156 24.9769 159.055C24.7744 158.954 24.6394 159.021 24.6394 159.19C24.6394 159.393 24.7744 159.561 24.9769 159.561ZM25.3144 119.396C25.4832 119.396 25.652 119.227 25.652 119.025C25.652 118.856 25.4832 118.788 25.3144 118.889C25.1119 118.991 24.9769 119.16 24.9769 119.261C24.9769 119.328 25.1119 119.396 25.3144 119.396ZM25.2807 121.893C25.7532 122.197 25.9557 120.813 25.517 120.442C25.2469 120.206 25.112 120.341 25.0445 120.915C25.0107 121.353 25.1119 121.792 25.2807 121.893ZM26.5295 21.9858C27.1708 22.2221 27.1371 22.0533 26.327 21.3445C25.7532 20.8044 25.652 20.8044 25.8207 21.2432C25.9558 21.547 26.2595 21.8845 26.5295 21.9858ZM27.9809 60.3962C29.0948 59.7887 29.331 59.3162 28.5547 59.3162C28.2847 59.3162 28.0147 59.5524 27.8796 59.8224C27.5759 60.5988 26.6646 60.43 26.6646 59.5862C26.6646 59.1136 26.507 59.0799 26.192 59.4849C25.787 60.0587 25.787 60.1937 26.327 60.565C26.8333 60.9363 27.1371 60.9025 27.9809 60.3962ZM26.6308 62.1851C26.7996 62.2864 27.0358 62.2189 27.1708 62.0164C27.2721 61.8476 27.1371 61.6788 26.8671 61.6788C26.2595 61.6788 26.1583 61.8813 26.6308 62.1851ZM27.3396 59.6537C27.5084 59.6537 27.6771 59.4849 27.6771 59.2824C27.6771 59.1136 27.5084 59.0461 27.3396 59.1474C27.1371 59.2486 27.0021 59.4174 27.0021 59.5187C27.0021 59.5862 27.1371 59.6537 27.3396 59.6537ZM29.0272 62.1176C29.4323 61.7126 29.4998 61.4426 29.2297 61.2738C28.5884 60.835 28.4197 60.97 28.4197 61.8476C28.4197 62.7252 28.4534 62.6914 29.0272 62.1176Z" fill="#171717"/>
<path fill-rule="evenodd" clip-rule="evenodd" d="M19.0395 104.41C19.2082 104.308 19.4107 104.443 19.5458 104.713C19.7483 105.22 19.3095 105.692 18.9382 105.321C18.6344 105.017 18.6682 104.612 19.0395 104.41Z" fill="#171717"/>
<path fill-rule="evenodd" clip-rule="evenodd" d="M21.9423 10.9152C22.2123 11.0502 22.4486 11.1514 22.4486 11.2189C22.4486 11.2865 22.2123 11.3877 21.9423 11.5227C21.6386 11.624 21.436 11.5227 21.436 11.2189C21.436 10.9152 21.6386 10.8139 21.9423 10.9152Z" fill="#171717"/>
<path fill-rule="evenodd" clip-rule="evenodd" d="M22.4484 10.2065C22.6171 10.3078 22.7859 10.4765 22.7859 10.5778C22.7859 10.6453 22.6171 10.7128 22.4484 10.7128C22.2459 10.7128 22.1108 10.544 22.1108 10.3415C22.1108 10.1728 22.2459 10.1053 22.4484 10.2065Z" fill="#171717"/>
<path fill-rule="evenodd" clip-rule="evenodd" d="M22.786 50.5408C22.9548 50.5408 23.1235 50.7095 23.1235 50.9121C23.1235 51.0808 22.9548 51.1483 22.786 51.0471C22.5835 50.9458 22.4485 50.777 22.4485 50.6758C22.4485 50.6083 22.5835 50.5408 22.786 50.5408Z" fill="#171717"/>
<path fill-rule="evenodd" clip-rule="evenodd" d="M29.1316 90.2336C29.3004 90.1323 29.4354 90.2673 29.4354 90.5373C29.4354 90.8074 29.3004 90.9424 29.1316 90.8411C28.9966 90.7399 28.8616 90.6048 28.8616 90.5373C28.8616 90.4698 28.9966 90.3348 29.1316 90.2336Z" fill="#171717"/>
<path fill-rule="evenodd" clip-rule="evenodd" d="M30.3805 0.687988C30.6506 0.687988 30.7856 0.822997 30.6843 0.99176C30.5831 1.16052 30.3468 1.19428 30.178 1.09302C29.7393 0.78925 29.8067 0.687988 30.3805 0.687988Z" fill="#171717"/>
<path fill-rule="evenodd" clip-rule="evenodd" d="M31.2242 2.27441C31.393 2.27441 31.5618 2.44317 31.5618 2.64568C31.5618 2.81445 31.393 2.88196 31.2242 2.7807C31.0217 2.67945 30.8867 2.51068 30.8867 2.40942C30.8867 2.34192 31.0217 2.27441 31.2242 2.27441Z" fill="#171717"/>
<path fill-rule="evenodd" clip-rule="evenodd" d="M31.7644 1.26172C32.0344 1.26172 32.1694 1.43048 32.0682 1.59924C31.9669 1.80176 31.7307 1.93677 31.5281 1.93677C31.3594 1.93677 31.2244 1.80176 31.2244 1.59924C31.2244 1.43048 31.4606 1.26172 31.7644 1.26172Z" fill="#171717"/>
<path fill-rule="evenodd" clip-rule="evenodd" d="M31.5617 177.113C32.0005 177.113 32.4055 178.058 32.1017 178.395C31.9667 178.497 31.7304 178.395 31.5617 178.125C31.1229 177.45 31.1566 177.113 31.5617 177.113Z" fill="#171717"/>
<path fill-rule="evenodd" clip-rule="evenodd" d="M32.3719 206.579C32.9119 206.748 32.9794 207.389 32.4394 207.592C32.1019 207.727 31.9669 207.592 32.0006 207.119C32.0344 206.782 32.2031 206.512 32.3719 206.579Z" fill="#171717"/>
<path fill-rule="evenodd" clip-rule="evenodd" d="M34.2282 27.2515C34.3969 27.2515 34.6669 27.4202 34.7682 27.589C34.8694 27.7915 34.8357 27.9265 34.6332 27.9265C34.4644 27.9265 34.1944 27.7915 34.0931 27.589C33.9919 27.4202 34.0256 27.2515 34.2282 27.2515Z" fill="#171717"/>
</g>
</svg>
