<svg width="107" height="109" viewBox="0 0 107 109" fill="none" xmlns="http://www.w3.org/2000/svg">
<path d="M75.3114 45.4569C71.2224 41.3558 69.878 2.56893 65.1627 4.63892C60.4473 6.70891 39.7929 29.3874 36.6114 28.1536C33.43 26.9197 8.1199 16.1282 8.66318 19.6088C9.20647 23.0894 26.7633 48.2785 25 52.4995C23.2367 56.7206 1.81842 80.2656 5 81.4995C8.18158 82.7334 36.3061 68.7064 40.5 70.5844C44.6939 72.4625 57.4404 105.706 60.5 104C63.5597 102.294 64.1195 73.1349 66.6231 70.5844C69.1268 68.034 106.079 59.3131 102.02 57.7388C97.9604 56.1645 79.4004 49.558 75.3114 45.4569Z" stroke="#FFA561" stroke-width="8" stroke-linecap="round"/>
</svg>
