<svg width="96" height="82" viewBox="0 0 96 82" fill="none" xmlns="http://www.w3.org/2000/svg">
<path d="M62.257 24.9634C57.2898 24.1523 41.7884 1.56254 39.5161 5.41704C37.2438 9.27154 38.1078 31.2535 35.2377 32.0011C32.3676 32.7486 2.92803 32.5233 5.08008 34.6991C7.23212 36.875 33.2198 47.7874 34.122 51.657C35.0242 55.5266 31.1596 78.4245 34.0298 77.6769C36.8999 76.9293 51.3805 54.2132 55.2918 53.4049C59.203 52.5967 88.0649 66.0231 89.3549 63.2664C90.6449 60.5097 73.2418 44.4144 73.7106 41.3454C74.1795 38.2763 94.4515 11.4206 90.7895 12.3744C87.1276 13.3283 67.2241 25.7745 62.257 24.9634Z" stroke="#FFA561" stroke-width="8" stroke-linecap="round"/>
</svg>
