<svg width="73" height="77" viewBox="0 0 73 77" fill="none" xmlns="http://www.w3.org/2000/svg">
<path d="M28.7191 4.62056C25.6571 5.16686 25.3189 30.5119 23.2592 31.1014C21.1995 31.6909 4.79966 34.0741 4.80059 36.3841C4.80152 38.6942 27.7991 46.9643 28.3666 48.9472C28.9341 50.9301 29.9667 71.2622 31.678 72.3401C33.3894 73.418 40.0165 49.5735 41.5749 49.5401C43.1332 49.5067 67.3754 63.2789 68.2139 61.8838C69.0525 60.4886 52.0129 44.4901 51.4017 42.3547C50.7906 40.2193 67.4451 20.2709 68.1854 18.2438C68.9256 16.2167 49.3454 23.6357 46.2943 24.5089C43.2433 25.382 31.7812 4.07427 28.7191 4.62056Z" stroke="#FFA561" stroke-width="8" stroke-linecap="round"/>
</svg>
