<svg width="85" height="71" viewBox="0 0 85 71" fill="none" xmlns="http://www.w3.org/2000/svg">
<path fill-rule="evenodd" clip-rule="evenodd" d="M71.8256 1.0366C71.8542 1.15626 72.2631 1.10449 72.7402 0.897694C73.2899 0.664368 73.7856 0.645913 74.1307 0.877693C74.7581 1.29911 75.2001 2.92672 74.9934 4.04319C74.9098 4.46407 74.9473 4.84075 75.0486 4.93388C75.1427 4.99709 75.1157 5.10452 74.9704 5.15758C74.8494 5.2018 74.6128 5.09309 74.5142 4.90137C74.3673 4.72734 74.326 4.77494 74.4048 5.104C74.445 5.38208 74.6304 5.6071 74.79 5.61386C74.9738 5.61178 75.0454 5.91093 74.9635 6.55891C74.9014 7.06954 74.7138 7.49586 74.5228 7.46803C74.3319 7.44019 74.174 7.66051 74.1586 7.92636C74.1504 8.22213 74.2203 8.2942 74.3199 8.16023C74.6016 7.7971 74.6203 7.98543 74.4207 9.13181C74.3415 9.6812 74.2222 9.95254 74.1721 9.74313C74.1291 9.56364 73.8683 9.46373 73.5777 9.56985C73.2388 9.69367 73.1706 9.84872 73.3731 10.035C73.5201 10.209 73.7628 10.6733 73.8872 11.0833C74.1173 11.7149 74.0617 11.7027 73.5394 10.9501C73.224 10.5123 72.923 10.1343 72.8746 10.152C72.7051 10.2139 73.0283 11.2344 73.2577 11.3132C73.7794 11.513 73.5876 13.2421 72.9489 14.0935C72.5676 14.5906 72.2831 15.0523 72.3046 15.1421C72.3189 15.2019 72.4086 15.1366 72.5324 14.9938C72.632 14.8598 72.7745 14.9054 72.8246 15.1148C72.889 15.384 72.6585 15.6308 72.1913 15.7689C71.6345 15.9724 71.4292 15.8847 71.329 15.4659C71.1286 14.6283 70.9697 15.1743 71.0991 16.2655C71.1482 16.8006 71.3353 17.2527 71.5092 17.3193C71.6517 17.3648 71.7585 17.2608 71.7084 17.0514C71.6511 16.8121 71.748 16.7767 72.0787 16.9486C72.4722 17.1627 72.5134 17.1151 72.2537 16.6895C72.0566 16.3061 72.0665 16.2374 72.3147 16.5046C72.5871 16.7629 72.6356 16.7452 72.6779 16.3719C72.6861 16.0762 72.7516 16.0197 72.8088 16.2591C72.876 16.4297 72.7269 16.907 72.4766 17.2912C72.2433 17.6367 72.1042 18.0453 72.1741 18.1174C72.2511 18.2194 72.2143 18.3955 72.0833 18.5084C71.9524 18.6213 71.7014 18.4527 71.5016 18.1678C71.0976 17.4696 70.7477 17.9878 70.8018 19.2042C70.8526 19.9663 70.8911 20.0174 70.9846 19.5278C71.1391 18.8533 71.8781 18.4207 71.8688 19.0421C71.8463 19.2781 71.6416 19.7432 71.3456 20.0465C71.081 20.3709 71.0029 20.5946 71.1723 20.5326C71.4145 20.4442 71.4189 20.5727 71.2142 21.0378C70.9144 21.7654 70.7163 21.7076 70.429 20.8367C70.3046 20.4268 70.085 20.2793 69.746 20.4031C69.3586 20.5446 69.3487 20.6133 69.6965 20.7465C70.0443 20.8796 70.0829 20.9306 69.7923 21.0368C69.5502 21.1252 69.6487 21.3169 70.1506 21.6541C70.7995 22.1652 70.838 22.2162 70.5195 22.7554C70.3176 23.1219 70.2521 23.1784 70.3159 22.8949C70.4363 22.2979 69.1576 22.8951 68.8435 23.5629C68.7241 23.8342 68.4039 24.1463 68.1375 24.2436C67.8954 24.332 67.7061 24.5313 67.7491 24.7108C67.792 24.8903 68.01 24.8107 68.3786 24.4808C69.1258 23.7525 69.1571 23.7736 69.275 24.7064C69.3483 25.2326 69.2575 25.6236 69.0396 25.7032C68.8459 25.7739 68.7238 26.1438 68.7685 26.5504C68.8104 27.0556 68.7322 27.2793 68.4615 27.2481C68.2463 27.2291 68.1325 27.3032 68.2337 27.3964C68.3421 27.5194 68.2514 27.9104 68.0566 28.3068C67.6941 28.9922 67.6699 29.0011 67.6962 28.3409C67.7065 27.3937 67.3649 27.6162 67.0371 28.7768C66.871 29.2929 66.8869 29.5798 67.0206 29.3684C67.2027 29.1392 67.2583 29.1514 67.1874 29.405C67.1406 29.6498 66.9101 29.8967 66.6922 29.9763C66.329 30.1089 66.3433 30.1688 66.7225 30.323C67.0461 30.4651 67.0048 30.5127 66.5019 30.5012C66.1343 30.5054 65.5318 30.6279 65.1273 30.8082C64.74 30.9497 64.2926 30.9504 64.1528 30.8063C63.9431 30.5901 63.8947 30.6078 63.9591 30.8771C64.002 31.0566 64.2574 31.3536 64.5084 31.5222C64.8606 31.7839 64.9206 31.9246 64.7071 32.1327C64.5833 32.2755 64.6631 32.2789 64.9079 32.0919C65.1599 31.9347 65.5303 31.832 65.7597 31.9108C66.0762 32.023 66.0564 32.1603 65.7092 32.5799C65.493 32.8866 65.2652 33.0348 65.2366 32.9152C65.2079 32.7955 65.0644 33.0757 64.8768 33.502C64.7206 33.9494 64.5044 34.2561 64.3789 34.1718C64.2848 34.1086 64.2336 34.2249 64.2837 34.4343C64.3481 34.7035 64.1572 34.6757 63.718 34.3807C63.045 33.8784 62.5509 34.1239 62.8437 34.7977C62.9494 35.0193 62.9367 35.1866 62.8569 35.1832C62.7772 35.1798 62.5852 35.4777 62.4075 35.8353C62.254 36.1842 61.958 36.4875 61.767 36.4596C61.5519 36.4406 61.3483 36.5801 61.3115 36.7562C61.2746 36.9323 61.4243 37.0077 61.6592 36.8893C61.8771 36.8097 62.0752 36.8675 62.1011 37.0858C62.11 37.3428 62.2696 37.3495 62.483 37.1414C62.7136 36.8946 62.8005 36.9279 62.7439 37.2413C62.6729 37.4949 62.4039 37.6908 62.1232 37.7283C61.8112 37.7447 61.6803 37.8576 61.803 38.0404C62.0001 38.4239 61.1215 40.1435 60.5889 40.3381C60.371 40.4177 60.2373 40.6292 60.2802 40.8087C60.316 40.9582 60.2093 41.0623 60.0667 41.0168C59.9 40.9801 59.8103 41.0454 59.8533 41.2249C59.8891 41.3745 59.7042 41.7022 59.4181 41.9368C59.1562 42.1626 58.9015 42.4183 58.8574 42.5645C58.7012 43.0119 57.1898 44.5074 56.7298 44.6754C56.4877 44.7639 56.1675 45.076 56.0481 45.3473C55.7511 45.9763 54.6567 47.1242 54.4685 46.9978C54.3816 46.9645 54.1654 47.2712 53.9778 47.6976L53.6197 48.5115L53.0121 47.9527C52.5757 47.5591 52.487 47.2988 52.6449 47.0784C52.8028 46.8581 52.7329 46.786 52.4424 46.8922C52.2245 46.9718 52.0594 47.1622 52.1024 47.3417C52.1382 47.4912 52.0529 47.685 51.9076 47.7381C51.7866 47.7823 51.7024 47.6504 51.7392 47.4743C51.7689 47.2683 51.6919 47.1663 51.5708 47.2105C51.4256 47.2636 51.3331 47.4275 51.3761 47.607C51.4118 47.7566 51.2782 47.968 51.0603 48.0476C50.7213 48.1715 50.7356 48.2313 51.1022 48.5528C51.4373 48.8532 51.5342 48.8179 51.5765 48.4446C51.6369 47.7069 52.5102 47.6156 52.7618 48.3369C52.9346 48.7292 52.895 49.0039 52.6771 49.0835C52.4834 49.1542 52.3184 49.3447 52.2986 49.482C52.286 49.6493 52.0213 49.9736 51.6626 50.2348C51.0518 50.6531 50.8493 50.4668 50.684 49.226C50.6609 48.9092 50.5569 48.9146 50.2268 49.2955C49.7217 49.9354 49.5038 50.015 49.6044 49.5553C49.6341 49.3493 49.5813 49.2385 49.4602 49.2827C49.315 49.3358 49.1956 49.6071 49.1874 49.9028C49.172 50.1687 49.007 50.3591 48.8331 50.2925C48.6036 50.2137 48.5937 50.2823 48.7863 50.5373C48.9646 50.7324 48.8293 50.7168 48.4672 50.5238C48.0632 50.3027 47.9561 50.5153 48.1459 51.1616C48.3303 51.7123 48.4179 52.2983 48.381 52.4744C48.232 52.9518 47.6553 53.2925 47.756 52.8329C47.7928 52.6568 47.6602 52.5426 47.4665 52.6133C47.2486 52.6929 47.1088 52.5488 47.1242 52.283C47.1396 52.0171 47.0025 51.7744 46.7972 51.6868C46.5435 51.6168 46.5408 51.7154 46.7164 52.0091C46.8848 52.2728 46.8623 52.5088 46.717 52.5618C46.5475 52.6237 46.6945 52.7977 47.0252 52.9697C47.3873 53.1627 47.341 53.299 46.8861 53.3784C46.2522 53.4798 46.0421 54.1421 46.588 54.333C46.7233 54.3487 46.6749 54.3663 46.4983 54.3983C46.3387 54.3916 46.1593 54.5222 46.1395 54.6595C46.1197 54.7968 46.0983 54.7071 46.0966 54.48C46.0635 54.2319 46.0046 53.7654 45.933 53.4663C45.8399 53.0774 45.901 52.8924 46.1305 52.9712C46.3286 53.029 46.3457 52.9903 46.1987 52.8162C46.0518 52.6422 46.0644 52.4749 46.2096 52.4219C46.3549 52.3688 46.3675 52.2015 46.2591 52.0785C46.1193 51.9344 45.94 52.065 45.7865 52.4138C45.6258 52.7327 45.3953 52.9796 45.2528 52.934C45.1031 52.8586 45.0206 52.9538 45.0635 53.1333C45.0993 53.2829 45.2947 53.4392 45.4543 53.446C45.725 53.4772 45.7393 53.537 45.4972 53.6255C45.3591 53.7085 45.2496 53.9111 45.2926 54.0906C45.3283 54.2401 45.4637 54.2558 45.6046 54.0742C45.7383 53.8627 45.7768 53.9137 45.7372 54.1884C45.6663 54.442 45.4698 54.6113 45.2547 54.5924C45.0153 54.5822 44.93 54.776 45.0159 55.135C45.0946 55.4641 45.038 55.7775 44.8927 55.8306C44.7475 55.8836 44.6319 55.7307 44.6544 55.4948C44.6698 55.2289 44.5355 54.8876 44.333 54.7013C44.0606 54.443 44.0435 54.4818 44.2576 54.8265C44.4475 55.18 44.3864 55.3649 44.0959 55.4711C43.7812 55.586 43.7713 55.6547 44.0635 55.7757C44.3799 55.8878 44.3942 55.9476 44.1395 56.2033C43.9018 56.4203 43.6822 56.2728 43.435 55.6799C43.1708 55.1259 42.937 54.9185 42.685 55.0757C42.45 55.194 41.9784 55.2036 41.6136 55.1092C41.2174 54.9937 41.0407 55.0257 41.1877 55.1997C41.3275 55.3438 41.339 55.5022 41.1938 55.5553C41.0485 55.6083 41.0816 55.8565 41.2186 56.0992C41.4256 56.414 41.3744 56.5303 41.0794 56.5079C40.8571 56.459 40.5567 56.6338 40.406 56.884C40.1969 57.2206 40.2283 57.2417 40.5072 56.9771C40.7279 56.7989 40.9358 56.788 40.9716 56.9376C41.1005 57.4761 41.4548 57.0864 41.5565 56.3011C41.6285 55.7218 41.694 55.6654 41.787 56.0542C41.8828 56.3445 42.0611 56.5396 42.2064 56.4866C42.3275 56.4423 42.3401 56.2751 42.2317 56.152C42.1161 55.9991 42.1359 55.8617 42.2569 55.8175C42.4022 55.7645 42.5733 55.9296 42.6378 56.1989C42.695 56.4382 42.8447 56.5136 42.9443 56.3797C43.0609 56.2069 43.0279 55.9588 42.9123 55.8058C42.7268 55.5808 42.751 55.572 43.0262 55.7317C43.6706 56.1143 43.3797 57.0989 42.6005 57.2534C42.2159 57.2964 41.9639 57.4535 42.0723 57.5765C42.1736 57.6696 42.1538 57.807 42.0085 57.86C41.8874 57.9043 41.6579 57.8254 41.5495 57.7024C41.434 57.5494 41.1632 57.5182 40.9695 57.589C40.7758 57.6597 40.7148 57.8447 40.8232 57.9677C40.963 58.1118 41.1638 58.071 41.2876 57.9282C41.4698 57.699 41.4769 57.7289 41.3476 58.0689C41.2525 58.3314 40.3969 58.9367 39.4329 59.419C38.0545 60.1501 37.6044 60.2495 37.1867 60.0443C36.8175 59.8213 36.6722 59.8744 36.5913 60.1967C36.5518 60.4714 36.5903 60.5224 36.724 60.3109C36.8648 60.1293 37.0002 60.1449 37.036 60.2945C37.0789 60.474 37.0421 60.6501 36.9282 60.7242C35.8503 61.2806 35.1751 61.4297 35.0309 61.1571C34.824 60.8423 33.8743 61.3844 33.9601 61.7434C34.0532 62.1323 32.9907 62.4228 32.5443 62.0979C31.9483 61.6976 31.7464 62.0641 32.3083 62.5419C32.6363 62.8125 32.6578 62.9022 32.3431 63.0172C32.1252 63.0968 31.8473 63.0356 31.7388 62.9126C31.5991 62.7685 31.3982 62.8093 31.2816 62.9821C31.1165 63.1725 31.1193 63.0739 31.2414 62.704C31.3563 62.3042 31.3304 62.0859 31.1566 62.0193C30.9513 61.9316 30.8797 61.6325 30.9104 61.1008C30.9313 60.6378 30.901 60.291 30.8283 60.3175C30.5136 60.4325 29.9205 61.3648 29.9849 61.634C30.0279 61.8135 30.1391 61.838 30.2386 61.704C30.3382 61.57 30.5363 61.6278 30.6734 61.8705C30.8803 62.1853 30.7978 62.2805 30.3191 62.2602C29.9515 62.2643 29.9422 62.4087 30.2911 62.6933C30.9955 63.2167 31.0913 63.507 30.5569 63.4745C30.3346 63.4256 30.1706 63.2903 30.2146 63.1441C30.2883 62.7919 28.8296 62.9669 28.3784 63.392C28.0582 63.7041 28.0653 63.734 28.5512 63.7842C28.9018 63.8188 28.6982 63.9583 27.9961 64.2147C27.1658 64.4855 26.999 64.4488 27.2081 64.1122C27.4001 63.8144 27.3697 63.4676 27.1798 63.1141C27.0043 62.8204 26.8799 62.4105 26.9167 62.2344C26.9464 62.0283 26.915 62.0073 26.8226 62.1712C26.7544 62.3262 26.4836 62.295 26.2426 62.0578C25.8447 61.7152 25.8205 61.724 26.0748 62.3467C26.2476 62.739 26.5173 63.0959 26.6912 63.1625C26.9207 63.2413 26.9081 63.4086 26.6434 63.733C25.9661 64.5334 24.1162 65.2742 24.2609 64.6683C24.3148 64.4535 24.1865 64.4678 23.9973 64.6671C23.7766 64.8452 23.4888 64.8528 23.3105 64.6577C23.0937 64.4116 23.0211 64.4381 23.0783 64.6775C23.1427 64.9467 22.8737 65.1426 22.3025 65.2861C21.4408 65.5359 20.9703 65.2198 21.7451 64.9368C22.1253 64.7653 22.1181 64.7354 21.6421 64.6165C21.2145 64.48 21.1617 64.3691 21.3779 64.0625C21.5771 63.7945 21.5072 63.7225 21.1198 63.864C20.8293 63.9701 20.4088 63.8635 20.2162 63.6085C20.0065 63.3924 19.864 63.3468 19.9141 63.5563C19.957 63.7357 20.1425 63.9607 20.3164 64.0273C20.4832 64.064 20.6417 64.3964 20.6406 64.7221C20.6396 65.0478 20.7838 65.3204 20.9747 65.3483C21.1343 65.355 20.9863 65.5067 20.6231 65.6394C20.2671 65.8019 19.7812 65.7517 19.5061 65.592C19.1924 65.3813 19.0086 65.3833 18.969 65.658C18.898 65.9117 18.6515 65.8716 18.2679 65.5888C17.6263 65.1076 17.405 64.733 17.8639 64.8907C18.0065 64.9362 18.1132 64.8321 18.0774 64.6826C18.0345 64.5031 17.9019 64.3889 17.7808 64.4331C17.6598 64.4773 17.4501 64.2611 17.2987 63.9586C17.1473 63.6561 16.8408 63.4753 16.6229 63.5549C16.3808 63.6433 16.344 63.8194 16.4909 63.9935C16.6692 64.1886 16.6038 64.245 16.2846 64.2315C16.0139 64.2003 15.8999 64.2744 16.0397 64.4185C16.1553 64.5715 16.4745 64.585 16.7408 64.4877C17.2977 64.2843 17.5492 65.0056 17.0568 65.4783C16.5643 65.9509 16.4603 65.9564 16.4911 65.4247C16.5092 65.0602 16.4223 65.027 16.1846 65.2439C15.9469 65.4608 15.8599 65.4275 15.9309 65.1739C15.9776 64.9291 15.8934 64.7972 15.7724 64.8414C15.6271 64.8945 15.5704 65.208 15.6563 65.5669C15.7351 65.896 15.8749 66.0401 15.9986 65.8973C16.0982 65.7634 16.2336 65.779 16.2694 65.9285C16.3982 66.467 15.8953 66.4556 15.4786 65.9246C15.1391 65.4957 14.8755 65.4944 13.9043 65.9467C12.795 66.4821 12.7637 66.461 12.4351 65.6377C12.145 64.8653 12.162 64.8266 12.5671 65.1991C12.8323 65.4275 13.0932 65.5274 13.1372 65.3812C13.2054 65.2262 13.0925 64.9746 12.8972 64.8183C12.6704 64.6409 12.5647 64.4192 12.5917 64.3118C12.6428 64.1955 12.365 64.1344 11.9561 64.1862C11.5473 64.2379 10.9986 64.1456 10.779 63.9981C10.5353 63.8594 9.97229 63.7072 9.54913 63.6991C8.26533 63.6151 8.18808 62.0819 9.44704 61.622C9.786 61.4982 10.1519 61.267 10.213 61.082C10.2812 60.927 10.6471 60.6957 11.0344 60.5542C11.3976 60.4216 11.6854 60.414 11.6414 60.5602C11.6288 60.7275 11.7713 60.773 11.9892 60.6934C12.2071 60.6138 12.2995 60.4499 12.1983 60.3568C12.0899 60.2338 12.158 60.0787 12.3517 60.008C12.5454 59.9372 12.7507 60.0249 12.7936 60.2044C12.8366 60.3839 12.9505 60.3097 13.0699 60.0384C13.3257 59.457 13.7301 59.2768 13.6124 59.7752C13.5755 59.9513 13.6355 60.092 13.7808 60.0389C13.9019 59.9947 14.0597 59.7744 14.0966 59.5983C14.1433 59.3535 14.3057 59.2617 14.5181 59.3793C14.7305 59.4969 15.3501 59.3356 15.9168 59.0635C16.5248 58.7438 17.1345 58.6512 17.4025 58.781C17.7889 58.9652 17.8131 58.9564 17.5962 58.7103C17.4493 58.5363 17.4619 58.369 17.704 58.2805C17.8977 58.2098 18.1756 58.2709 18.284 58.394C18.4238 58.5381 18.6076 58.536 18.7072 58.402C18.7996 58.2382 19.0004 58.1973 19.1672 58.234C19.3097 58.2795 20.2099 58.0808 21.1685 57.7957C22.1512 57.5018 23.0971 57.384 23.3965 57.5348C23.7273 57.7068 23.8071 57.7102 23.6216 57.4852C23.4818 57.3411 23.4872 57.1439 23.6083 57.0997C23.7536 57.0466 23.9032 57.122 23.9462 57.3015C23.982 57.4511 24.1586 57.4191 24.3793 57.2409C24.617 57.024 24.6968 57.0274 24.633 57.3109C24.5862 57.5557 24.6704 57.6876 24.8157 57.6345C24.9609 57.5814 25.0875 57.3401 25.11 57.1041C25.1408 56.5724 27.5976 55.8376 27.8574 56.2632C27.9416 56.3951 28.1039 56.3032 28.2376 56.0917C28.5077 55.5702 32.3665 53.5425 33.4748 53.3329C33.9491 53.2247 34.2011 53.0676 34.0927 52.9445C33.9529 52.8004 34.0211 52.6454 34.1906 52.5835C35.3626 52.0903 37.2862 50.9973 38.4279 50.1573C39.1696 49.6262 40.2288 48.8814 40.7983 48.5108C41.3606 48.1102 42.0054 47.6144 42.236 47.3675C42.4665 47.1207 43.1912 46.6282 43.8718 46.282C44.5695 45.897 45.0933 45.4455 45.1015 45.1497C45.1169 44.8839 45.3402 44.6071 45.5824 44.5186C45.8245 44.4302 46.1034 44.1657 46.1887 43.9719C46.291 43.7393 46.6354 43.4183 46.9359 43.2435C47.2434 43.0986 47.9152 42.4954 48.4346 41.9154C48.954 41.3353 49.6088 40.7708 49.9235 40.6558C50.2382 40.5408 50.4033 40.3504 50.2949 40.2274C50.0153 39.9392 51.7286 38.0772 52.6513 37.6426C53.0316 37.4711 53.3034 37.1767 53.2362 37.006C53.1762 36.8653 53.4381 36.6395 53.8084 36.5368C54.2998 36.3898 54.4478 36.2381 54.3107 35.9954C54.1495 35.7616 54.3828 35.4161 54.955 34.9469C55.4859 34.5252 55.7362 34.141 55.5893 33.967C55.4424 33.793 55.4594 33.7542 55.6575 33.8119C56.1165 33.9696 57.5976 32.1274 57.85 31.0918C57.9847 30.5546 58.3005 30.114 58.6637 29.9813C59.0511 29.8398 59.1677 29.6671 58.9894 29.472C58.8424 29.298 58.8595 29.2592 59.0576 29.317C59.4852 29.4536 60.2604 28.2921 59.9153 28.0603C59.7827 27.9461 59.8311 27.9284 59.9978 27.9651C60.1646 28.0018 60.4606 27.6985 60.6795 27.2932C60.8913 26.858 61.1174 26.4827 61.1901 26.4561C61.2627 26.4296 61.4718 26.093 61.6665 25.6966C61.8684 25.3301 62.1726 24.731 62.3503 24.3733C62.528 24.0156 62.8724 23.6946 63.1046 23.6749C63.3539 23.6163 63.4535 23.4824 63.3522 23.3893C63.2438 23.2662 63.4754 22.6937 63.8765 22.0592C64.2847 21.4547 64.5647 20.8645 64.5119 20.7537C64.459 20.6429 64.695 20.1988 65.0664 19.7704C65.4378 19.342 65.6226 19.0142 65.4944 19.0285C65.1555 19.1523 65.6769 17.9209 66.2178 17.4306C66.4968 17.166 66.6018 16.8349 66.4934 16.7118C66.3778 16.5589 66.4245 16.3141 66.5968 16.1536C66.7932 15.9843 66.9126 15.7129 66.8768 15.5634C66.7622 15.0847 67.4191 13.8689 68.0711 13.403C68.6505 12.9637 68.6433 12.9338 68.1387 12.6952C67.7861 12.5421 67.7656 12.4195 68.077 12.3274C68.3747 12.2512 68.5156 12.0696 68.4099 11.848C68.1771 11.315 68.9625 9.20639 69.2223 9.63197C69.3836 9.86583 69.432 9.84815 69.3604 9.549C69.3345 9.33075 69.4099 9.20561 69.5766 9.24229C69.7192 9.28782 69.8116 9.12394 69.7472 8.8547C69.6828 8.58547 69.751 8.43044 69.9177 8.46712C70.0602 8.51264 70.167 8.40858 70.1312 8.25901C70.0882 8.07952 69.9314 7.97417 69.8103 8.01839C69.6651 8.07146 69.5396 7.98717 69.4967 7.80768C69.4609 7.65811 69.616 7.53637 69.8312 7.55536C70.0777 7.59542 70.1971 7.3241 70.1965 6.77133C70.1689 6.32599 70.2525 5.90511 70.3736 5.86089C70.4946 5.81667 70.5413 5.5719 70.4841 5.33258C70.4268 5.09326 70.4735 4.84848 70.6188 4.79542C70.7399 4.7512 70.818 4.52748 70.7607 4.28816C70.6533 3.83944 71.8148 2.86217 72.2738 3.01982C72.4235 3.09526 72.6028 2.96467 72.6325 2.75865C72.6864 2.54378 72.6336 2.43296 72.5197 2.50709C71.805 2.93083 71.2635 2.86842 71.2216 2.36325C71.2056 2.07633 71.1753 1.72956 71.1538 1.63982C71.1064 1.33183 71.7612 0.76737 71.8256 1.0366ZM73.3862 1.50745C73.3494 1.68355 73.4094 1.82428 73.5547 1.77122C73.6757 1.727 73.8336 1.50667 73.8705 1.33057C73.9001 1.12455 73.8473 1.01372 73.7021 1.06679C73.581 1.111 73.4159 1.30142 73.3862 1.50745ZM74.1168 3.6803C74.174 3.91962 74.2995 4.00391 74.3991 3.86995C74.4987 3.73598 74.4728 3.51774 74.3643 3.3947C74.0534 3.0854 73.9951 3.17175 74.1168 3.6803ZM72.761 4.17556C72.898 4.41826 73.0549 4.52361 73.0818 4.41618C73.133 4.2999 73.0658 4.12926 72.926 3.98515C72.5936 3.58611 72.4698 3.72892 72.761 4.17556ZM72.1454 5.3438C72.2312 5.70277 72.5289 5.62656 73.0841 5.19606C73.1496 5.13961 72.9515 5.08186 72.6494 5.02957C72.3472 4.97728 72.1007 4.9372 72.0765 4.94605C72.0694 4.91613 72.0881 5.10448 72.1454 5.3438ZM70.6095 9.15777C70.631 9.24752 70.7636 9.36171 70.9303 9.39839C71.0729 9.44391 71.1796 9.33986 71.1438 9.19028C71.1009 9.0108 70.944 8.90545 70.823 8.94967C70.6777 9.00273 70.5952 9.09794 70.6095 9.15777ZM70.0335 10.0513C70.0907 10.2906 70.1893 10.4823 70.2377 10.4646C70.2861 10.447 70.3329 10.2022 70.3724 9.92748C70.3878 9.66163 70.2893 9.46992 70.1682 9.51414C70.023 9.5672 69.9762 9.81198 70.0335 10.0513ZM73.5744 9.11566C73.6685 9.17887 73.8936 9.12922 74.0416 8.97757C74.2138 8.81707 74.1197 8.75383 73.8533 8.85111C73.5799 8.91848 73.4561 9.06129 73.5744 9.11566ZM72.1752 10.3099C71.975 10.9035 72.0064 10.9246 72.2765 10.403C72.4685 10.1052 72.6049 9.79512 72.5906 9.73529C72.5333 9.49597 72.3754 9.71631 72.1752 10.3099ZM70.7324 10.7719C70.7968 11.0411 70.6731 11.1839 70.3539 11.1704C70.0105 11.1657 69.9935 11.2044 70.2516 11.4029C70.6666 11.7068 71.3455 11.1335 71.2095 10.5651C71.1522 10.3258 70.9882 10.1905 70.8672 10.2347C70.7219 10.2878 70.6752 10.5325 70.7324 10.7719ZM70.6897 12.0236C70.2423 12.0244 70.184 12.1107 70.4977 12.3214C70.944 12.6463 71.5817 12.1207 71.4286 11.591C71.3642 11.3218 71.3158 11.3395 71.2933 11.5754C71.2707 11.8113 70.9945 11.9773 70.6897 12.0236ZM72.3362 12.8534C72.5108 13.4728 72.6379 13.7842 72.6604 13.5483C72.6659 13.3511 72.7682 13.1185 72.8893 13.0743C73.0346 13.0212 73.0945 13.162 73.0478 13.4068C73.0011 13.6515 73.0324 13.6726 73.1733 13.491C73.4137 13.1755 73.0367 12.3699 72.6977 12.4937C72.5766 12.5379 72.4297 12.3639 72.3724 12.1246C72.3152 11.8852 72.2166 11.6935 72.144 11.7201C72.0956 11.7377 72.1689 12.264 72.3362 12.8534ZM71.9859 14.25C71.9705 14.5159 72.0234 14.6267 72.1471 14.4839C72.2709 14.3411 72.3177 14.0963 72.2747 13.9168C72.1745 13.498 72.0265 13.6497 71.9859 14.25ZM68.3587 15.7052C68.4671 15.8282 68.7692 15.8805 68.9871 15.8009C69.3503 15.6682 69.3359 15.6084 68.9639 15.4841C68.3867 15.272 68.0719 15.387 68.3587 15.7052ZM68.0193 16.7074C68.2945 16.8672 69.2359 16.6208 69.1858 16.4114C69.15 16.2618 68.8551 16.2395 68.5161 16.3633C68.1772 16.4871 67.9494 16.6354 68.0193 16.7074ZM70.2602 17.7105C70.6679 17.9844 70.9111 17.5703 70.5616 17.21C70.446 17.0571 70.2381 17.068 70.1143 17.2108C69.9976 17.3835 70.0406 17.563 70.2602 17.7105ZM68.4641 18.2365C68.4273 18.4126 68.5671 18.5567 68.7822 18.5757C69.0288 18.6158 69.0799 18.4995 68.9115 18.2357C68.6517 17.8101 68.5477 17.8156 68.4641 18.2365ZM69.5957 19.7749C69.566 19.9809 69.7328 20.0176 69.9919 19.8904C70.2582 19.7931 70.3677 19.5905 70.2907 19.4885C70.0424 19.2213 69.6864 19.3839 69.5957 19.7749ZM68.8784 21.7284C68.9142 21.878 69.0397 21.9623 69.1365 21.9269C69.2576 21.8827 69.3043 21.6379 69.2471 21.3986C69.1898 21.1593 69.0643 21.075 68.9647 21.2089C68.8894 21.3341 68.8355 21.5489 68.8784 21.7284ZM64.8192 22.9185C64.7438 23.0436 64.8352 23.2054 64.9777 23.2509C65.1203 23.2964 65.3337 23.0883 65.4289 22.8258C65.5923 22.4083 65.5466 22.3274 65.2704 22.4934C65.0596 22.6029 64.8704 22.8022 64.8192 22.9185ZM66.247 25.5848C66.2101 25.7609 66.2943 25.8928 66.4154 25.8486C66.5607 25.7955 66.6459 25.6017 66.6101 25.4521C66.5672 25.2726 66.4902 25.1707 66.4417 25.1883C66.3691 25.2149 66.2767 25.3788 66.247 25.5848ZM67.3013 25.59C67.2672 25.6675 67.3971 25.8803 67.5754 26.0754C67.8478 26.3337 67.9518 26.3283 67.9601 26.0325C67.9826 25.7966 68.1548 25.636 68.3457 25.6639C68.5367 25.6917 68.7843 25.4061 68.9136 25.0661C69.0967 24.5113 69.0411 24.4991 68.2295 24.9582C67.7668 25.2248 67.3354 25.5125 67.3013 25.59ZM66.8426 26.8636C66.8217 27.3266 66.8531 27.3477 67.0891 26.9036C67.4004 26.3345 67.4059 26.1373 67.0912 26.2523C66.9701 26.2965 66.8508 26.5678 66.8426 26.8636ZM65.9794 28.3174C66.008 28.4371 66.1918 28.435 66.364 28.2745C66.529 28.0841 66.6556 27.8427 66.6198 27.6931C66.5912 27.5735 66.4074 27.5755 66.2352 27.736C66.0701 27.9264 65.9436 28.1678 65.9794 28.3174ZM59.9481 30.6182C59.9696 30.7079 60.1022 30.8221 60.269 30.8588C60.4115 30.9043 60.5182 30.8003 60.4824 30.6507C60.4395 30.4712 60.2826 30.3658 60.1616 30.4101C60.0163 30.4631 59.9338 30.5583 59.9481 30.6182ZM65.1305 29.8311C65.2433 30.0827 65.5328 30.3022 65.7892 30.2736C66.1183 30.2184 66.1695 30.1022 65.9867 29.7785C65.8255 29.5447 65.848 29.3088 66.0175 29.2469C66.2112 29.1761 66.1655 29.0952 65.9046 28.9953C65.3274 28.7833 64.9147 29.2593 65.1305 29.8311ZM63.5433 32.3301C63.7844 32.5674 64.0183 32.7747 64.0568 32.8257C64.0882 32.8467 64.1107 32.6108 64.0974 32.2253C64.0869 31.7412 63.9543 31.627 63.5911 31.7597C63.1553 31.9188 63.1454 31.9875 63.5433 32.3301ZM48.5178 42.3729C48.3176 42.9665 48.3489 42.9876 48.619 42.466C48.811 42.1682 48.9475 41.8581 48.9331 41.7983C48.8759 41.559 48.718 41.7793 48.5178 42.3729ZM60.6228 38.8294C60.7169 38.8926 60.8533 38.5825 60.9369 38.1616C61.1013 37.4185 61.0771 37.4273 60.7801 38.0563C60.6095 38.4439 60.5358 38.7961 60.6228 38.8294ZM56.78 41.144C56.7332 41.3887 56.7547 41.4785 56.8471 41.3146C56.9153 41.1596 57.196 41.1221 57.464 41.2519C57.8817 41.4572 57.8745 41.4272 57.4695 41.0547C56.939 40.5979 56.8834 40.5857 56.78 41.144ZM56.3444 42.7343C56.4385 42.7975 56.6636 42.7479 56.8116 42.5962C56.9838 42.4357 56.8897 42.3725 56.6233 42.4698C56.3499 42.5372 56.2261 42.68 56.3444 42.7343ZM55.1542 43.592C55.19 43.7415 55.4096 43.889 55.649 43.8992C56.0237 43.9249 56.0408 43.8862 55.6814 43.5946C55.2208 43.2098 55.0612 43.2031 55.1542 43.592ZM56.2235 44.2098C56.1867 44.3859 56.2709 44.5178 56.3919 44.4736C56.5372 44.4205 56.6225 44.2267 56.5867 44.0771C56.5437 43.8976 56.4667 43.7957 56.4183 43.8134C56.3456 43.8399 56.2532 44.0038 56.2235 44.2098ZM54.5839 45.7196C54.7677 45.7175 55.0126 45.5305 55.0978 45.3367C55.2342 45.0266 55.1302 45.0321 54.7473 45.3021C54.4612 45.5367 54.3687 45.7006 54.5839 45.7196ZM53.6045 46.4677C53.5677 46.6438 53.6519 46.7756 53.7729 46.7314C53.9182 46.6784 54.0035 46.4846 53.9677 46.335C53.9247 46.1555 53.8477 46.0535 53.7993 46.0712C53.7266 46.0977 53.6342 46.2616 53.6045 46.4677ZM48.4857 49.2809C48.4488 49.457 48.5788 49.6697 48.7527 49.7363C48.9508 49.7941 48.992 49.7465 48.8451 49.5725C48.7367 49.4494 48.752 49.1836 48.883 49.0707C49.0723 48.8714 49.0821 48.8027 48.8642 48.8823C48.7118 48.9055 48.5467 49.0959 48.4857 49.2809ZM51.1221 49.8467C51.1364 49.9065 51.3202 49.9044 51.5139 49.8337C51.7076 49.7629 51.8485 49.5814 51.8055 49.4019C51.7697 49.2523 51.5859 49.2544 51.4137 49.4149C51.2487 49.6053 51.1078 49.7868 51.1221 49.8467ZM14.8357 64.3378C14.85 64.3977 15.0553 64.4853 15.2947 64.4955C15.5098 64.5145 15.5995 64.4492 15.4839 64.2962C15.2671 64.0501 14.7784 64.0985 14.8357 64.3378ZM13.5235 65.5654C13.3233 66.159 13.3546 66.18 13.6247 65.6585C13.8168 65.3606 13.9532 65.0506 13.9388 64.9907C13.8816 64.7514 13.7237 64.9718 13.5235 65.5654ZM23.127 62.3501C23.2211 62.4133 23.4462 62.3636 23.5942 62.212C23.7664 62.0515 23.6723 61.9882 23.4059 62.0855C23.1325 62.1529 23.0087 62.2957 23.127 62.3501ZM21.8802 63.5212C21.943 63.5633 22.2021 63.4361 22.4882 63.2014C22.8398 62.9104 22.8596 62.773 22.5988 62.6731C22.2823 62.561 21.6293 63.3526 21.8802 63.5212ZM20.7829 63.3364C20.7461 63.5125 20.8061 63.6533 20.9514 63.6002C21.0724 63.556 21.2303 63.3357 21.2672 63.1596C21.2968 62.9535 21.244 62.8427 21.0988 62.8958C20.9777 62.94 20.8126 63.1304 20.7829 63.3364ZM19.2236 63.9711C19.1806 63.7917 18.9682 63.6741 18.7503 63.7536C18.4113 63.8775 18.4185 63.9074 18.8648 64.2323C19.3909 64.5606 19.8151 64.243 19.672 63.6447C19.6219 63.4353 19.5322 63.5006 19.4513 63.8229C19.3776 64.1751 19.288 64.2404 19.2236 63.9711ZM39.1514 57.4724C39.1289 57.7083 39.196 57.879 39.2929 57.8436C39.7072 57.5947 39.9367 57.6735 39.7034 58.0189C39.5043 58.2869 39.5329 58.4065 39.895 58.5996C40.2257 58.7715 40.3468 58.7273 40.4276 58.405C40.4744 58.1602 40.4358 58.1092 40.295 58.2908C40.1542 58.4724 40.0413 58.2208 39.9664 57.4675C39.8799 56.5557 39.7956 56.4238 39.5167 56.6884C39.3445 56.8489 39.1668 57.2065 39.1514 57.4724ZM33.7871 59.9199C33.9231 60.4882 33.8819 60.5359 33.4328 60.3095C32.9766 60.0533 32.9837 60.0832 33.4103 60.5455C33.7203 60.8876 33.9833 60.8132 34.1993 60.3223C34.3699 59.9347 34.4221 59.4927 34.3136 59.3697C33.9256 58.9584 33.6296 59.2617 33.7871 59.9199ZM31.7715 60.2983C31.8073 60.4479 31.9911 60.4458 32.1633 60.2853C32.3284 60.0949 32.4692 59.9133 32.4549 59.8535C32.4406 59.7937 32.2568 59.7958 32.0631 59.8665C31.8694 59.9373 31.7286 60.1188 31.7715 60.2983ZM24.2661 63.0399C24.3019 63.1895 24.4588 63.2949 24.6041 63.2418C24.7251 63.1976 24.7377 63.0303 24.6293 62.9073C24.5137 62.7543 24.364 62.6789 24.2914 62.7054C24.243 62.7231 24.2232 62.8605 24.2661 63.0399ZM23.1398 63.614C23.2312 63.7758 23.415 63.7738 23.6015 63.6731C23.7567 63.5514 23.8508 63.6146 23.7969 63.8294C23.7743 64.0654 23.924 64.1408 24.2145 64.0347C24.5051 63.9285 24.7588 63.9985 24.8089 64.208C24.8518 64.3874 24.9388 64.4207 25.007 64.2657C25.0752 64.1106 24.7329 63.7803 24.2524 63.5329C23.3543 63.0802 22.8343 63.1075 23.1398 63.614ZM19.528 64.8033C19.4345 65.2928 20.0305 65.6932 20.3122 65.33C20.5284 65.0234 20.1513 64.2177 19.8366 64.3327C19.7155 64.3769 19.5819 64.5884 19.528 64.8033ZM37.1773 59.2345C37.2714 59.2977 37.4436 59.1372 37.563 58.8659C37.7093 58.4871 37.6779 58.4661 37.3819 58.7694C37.1613 58.9475 37.0832 59.1713 37.1773 59.2345ZM36.2726 59.3047C36.3084 59.4543 36.3926 59.5862 36.441 59.5685C36.5137 59.5419 36.5989 59.3481 36.6358 59.172C36.6655 58.966 36.5884 58.864 36.4674 58.9083C36.3221 58.9613 36.2297 59.1252 36.2726 59.3047ZM27.9952 62.2308C28.2974 62.2831 28.3117 62.3429 28.1026 62.6795C27.8693 63.0249 27.8765 63.0548 28.1456 62.859C28.6352 62.4849 28.5504 61.8002 28.0491 62.0159C27.7586 62.122 27.7245 62.1995 27.9952 62.2308ZM35.7389 59.8249C36.057 60.1642 35.6069 60.2635 35.1364 59.9475C34.8227 59.7368 34.8057 59.7755 35.0269 60.1501C35.4023 60.7286 36.0164 60.7645 36.04 60.2029C36.0625 59.967 35.9981 59.6977 35.904 59.6345C35.5903 59.4238 35.4907 59.5578 35.7389 59.8249ZM25.3998 63.927C25.363 64.1031 25.4472 64.235 25.5682 64.1908C25.7135 64.1377 25.7988 63.9439 25.763 63.7943C25.72 63.6149 25.643 63.5129 25.5946 63.5306C25.522 63.5571 25.4295 63.721 25.3998 63.927ZM33.0978 61.4403C33.1336 61.5899 33.2178 61.7218 33.2662 61.7041C33.3389 61.6775 33.4241 61.4837 33.461 61.3076C33.4907 61.1016 33.4136 60.9996 33.2926 61.0439C33.1473 61.0969 33.0549 61.2608 33.0978 61.4403Z" fill="#FFA561"/>
<path fill-rule="evenodd" clip-rule="evenodd" d="M48.2642 10.9441C48.7088 11.0419 49.4044 11.3083 49.7737 11.5312C50.1671 11.7453 50.4522 11.8364 50.4307 11.7467C50.4021 11.627 50.6558 11.697 50.9865 11.8689C51.3244 12.0708 51.6497 12.4399 51.7212 12.7391C51.8 13.0681 51.9497 13.1435 52.1703 12.9654C52.6627 12.4927 53.1261 12.7789 52.9088 13.4112C52.7526 13.8586 52.7741 13.9484 53.0432 13.7525C53.2225 13.6219 53.4046 13.3928 53.4486 13.2466C53.5905 12.7393 54.5271 16.9839 54.4282 17.6706C54.3347 18.1602 54.3804 18.241 54.5553 17.982C54.7545 17.714 54.8145 17.8548 54.8509 18.5571C54.8686 19.0711 54.8109 19.7103 54.7086 19.9428C54.5183 20.4678 54.0627 20.7643 54.1561 20.2747C54.2001 20.1285 53.9778 20.0796 53.6945 20.2157C53.4111 20.3517 53.0749 20.377 52.9664 20.2539C52.8338 20.1397 52.5961 20.3566 52.4256 20.7442C52.0504 21.5969 50.8201 22.1765 50.8464 21.5163C50.8761 21.3103 50.7121 21.175 50.4942 21.2546C50.2763 21.3342 50.0567 21.1867 49.9923 20.9174C49.935 20.6781 49.8024 20.5639 49.7028 20.6979C49.4283 21.0909 47.5011 20.2986 47.3409 19.739C47.2622 19.41 47.0641 19.3522 46.6597 19.5325C46.1243 19.8256 45.7236 19.5816 45.3636 18.7372C45.0036 17.8928 44.5584 17.2423 44.3647 17.313C44.2436 17.3572 44.0824 17.1234 44.0036 16.7943C43.9249 16.4652 44.0058 16.143 44.1994 16.0722C44.4173 15.9926 44.4256 15.6969 44.2411 15.1462C44.0854 14.7151 44.0352 14.5057 44.1508 14.6587C44.4205 15.0156 45.2833 14.4402 45.1831 14.0214C45.1401 13.8419 44.9563 13.844 44.7841 14.0045C44.619 14.1949 44.3868 14.2146 44.2784 14.0916C44.1386 13.9475 44.231 13.7836 44.4247 13.7128C44.6426 13.6332 44.6965 13.4184 44.5738 13.2355C44.3069 12.78 45.6972 11.3288 46.7042 11.026C47.0987 10.9144 47.8025 10.8851 48.2642 10.9441Z" fill="#FFA561"/>
<path fill-rule="evenodd" clip-rule="evenodd" d="M28.6139 27.296C28.8747 27.3959 28.8962 27.4856 28.6827 27.6937C28.5105 27.8542 28.6871 27.8222 29.0844 27.612C29.9345 27.2039 32.3163 28.0254 32.2729 28.7244C32.2575 28.9902 32.4672 29.2064 32.7308 29.2077C33.7367 29.2306 35.0164 32.0486 34.9733 34.1788C34.9745 35.2844 34.577 37.8042 34.3014 38.5229C34.2673 38.6005 33.8772 38.8405 33.4244 39.0385C32.8505 39.2807 32.6111 39.2705 32.6364 38.936C32.6589 38.7001 32.5433 38.5471 32.3738 38.609C32.2043 38.6709 32.2197 38.4051 32.4145 38.0086C32.5922 37.651 32.6119 37.5136 32.437 37.7727C32.2791 37.993 32.0431 38.4371 31.9309 38.7383C31.7989 39.1769 31.7262 39.2034 31.6475 38.8743C31.5902 38.635 31.4422 38.7867 31.2519 39.3116C30.9934 39.9916 30.9037 40.0568 30.6896 39.7122C30.5525 39.4695 30.5481 39.341 30.6906 39.3865C30.8332 39.432 30.9955 39.3402 31.0323 39.1641C31.0521 39.0268 30.8469 38.9391 30.5563 39.0452C30.2586 39.1214 29.8382 39.0148 29.6285 38.7986C29.426 38.6123 28.8559 38.4302 28.4014 38.4011C27.9226 38.3808 27.5748 38.2476 27.6331 38.1613C27.7696 37.8512 26.9754 37.3931 26.7521 37.6699C26.6283 37.8127 26.5969 37.7916 26.6651 37.6365C26.7091 37.4904 26.5291 37.0682 26.2281 36.6902C25.8742 36.2014 25.7713 35.8812 25.9005 35.5412C26.0226 35.1713 25.9527 35.0993 25.6138 35.2231C25.2506 35.3557 25.2121 35.3047 25.4283 34.998C25.579 34.7478 25.5675 34.5894 25.3936 34.5228C25.0843 34.4406 25.0009 32.5518 25.2854 32.0901C25.3365 31.9738 25.4498 31.3469 25.5488 30.6602C25.6307 30.0122 25.892 29.2336 26.1566 28.9093C26.9478 28.0347 28.2419 27.1716 28.6139 27.296Z" fill="#FFA561"/>
<path fill-rule="evenodd" clip-rule="evenodd" d="M53.8008 20.9907C53.9334 21.1049 53.7783 21.2267 53.4905 21.2342C52.8907 21.2581 52.768 21.0752 53.2522 20.8984C53.4459 20.8276 53.6924 20.8677 53.8008 20.9907Z" fill="#FFA561"/>
<path fill-rule="evenodd" clip-rule="evenodd" d="M30.9241 40.4721C31.2423 40.8113 31.513 40.8425 31.7507 40.6256C32.0538 40.3522 32.0852 40.3733 31.8976 40.7996C31.7271 41.1872 31.5675 41.1804 31.0029 40.8012C30.6265 40.5483 30.3469 40.26 30.4052 40.1737C30.4564 40.0574 30.6759 40.2049 30.9241 40.4721Z" fill="#FFA561"/>
<path fill-rule="evenodd" clip-rule="evenodd" d="M33.8536 39.402C34.0138 39.9616 33.3492 40.5947 32.8033 40.4038C32.3443 40.2461 32.7525 39.6416 33.294 39.704C33.4778 39.702 33.6814 39.5625 33.7039 39.3266C33.7022 39.0995 33.7892 39.1328 33.8536 39.402Z" fill="#FFA561"/>
<path d="M66.0827 31.5C65.8822 31.5733 65.6875 31.4987 65.648 31.3335C65.6085 31.1683 65.739 30.975 65.9396 30.9017C66.1401 30.8284 66.3348 30.903 66.3743 31.0682C66.4138 31.2334 66.2833 31.4267 66.0827 31.5Z" fill="#FFA561"/>
<path fill-rule="evenodd" clip-rule="evenodd" d="M63.6731 34.8528C64.0567 35.1355 64.0315 35.47 63.5479 36.1997C63.1738 36.7267 62.9388 36.8451 62.5426 36.7296C62.2333 36.6474 62.1491 36.5155 62.3114 36.4237C62.4738 36.3318 62.7087 36.2135 62.8468 36.1305C62.9678 36.0863 63.1456 35.7286 63.2435 35.3676C63.3656 34.9977 63.5477 34.7685 63.6731 34.8528Z" fill="#FFA561"/>
<path fill-rule="evenodd" clip-rule="evenodd" d="M50.5313 50.1279C50.735 50.4655 50.7082 50.7572 50.4511 51.0029C50.2134 51.2199 50.1023 51.1954 50.1275 50.8609C50.1528 50.5264 50.0416 50.5019 49.7071 50.7542C49.3896 50.9678 49.2543 50.9522 49.2625 50.6564C49.2789 50.0649 50.233 49.6513 50.5313 50.1279Z" fill="#FFA561"/>
<path fill-rule="evenodd" clip-rule="evenodd" d="M48.9868 51.3748C48.95 51.5509 49.0485 51.7426 49.2224 51.8092C49.563 51.9125 49.4982 52.5217 49.1108 52.6632C48.9898 52.7074 48.8742 52.5545 48.8896 52.2886C48.9121 52.0527 48.7536 51.7202 48.5654 51.5938C48.3144 51.4252 48.3414 51.3178 48.6561 51.2029C48.874 51.1233 49.0479 51.1899 48.9868 51.3748Z" fill="#FFA561"/>
<path fill-rule="evenodd" clip-rule="evenodd" d="M29.7081 63.5569C29.5601 63.7086 29.335 63.7582 29.2409 63.695C29.1226 63.6406 29.2464 63.4978 29.5199 63.4304C29.7862 63.3332 29.8803 63.3964 29.7081 63.5569Z" fill="#FFA561"/>
</svg>
