<svg width="467" height="864" viewBox="0 0 467 864" fill="none" xmlns="http://www.w3.org/2000/svg">
<mask id="mask0_17_19" style="mask-type:alpha" maskUnits="userSpaceOnUse" x="0" y="0" width="467" height="864">
<path d="M108 530.5C205 722 151.5 815.5 79.9997 863.24H402.5C449.5 776.5 510 641.5 419.5 418.5C329 195.5 355.5 93.5 431 12.5C431 12.5 380 -7.00002 298.5 3.49997C217 14 151 52 151 52C-91.5001 194 8.49976 379 108 530.5Z" fill="#EB7A24"/>
</mask>
<g mask="url(#mask0_17_19)">
<path d="M108 530.5C205 722 151.5 815.5 79.9997 863.24H402.5C449.5 776.5 510 641.5 419.5 418.5C329 195.5 355.5 93.5 431 12.5C431 12.5 380 -7.00002 298.5 3.49997C217 14 151 52 151 52C-91.5001 194 8.49976 379 108 530.5Z" fill="#EB7A24"/>
<path d="M419.5 418.5C329 195.5 355.5 93.5 431 12.5C431 12.5 380 -7.00002 298.5 3.49997C217 14 151 52 151 52C19.3737 129.076 -11.3454 218.82 3.99134 309L101 410.5L152 274.5L246 410.5L282 260.5L421.111 422.5C420.579 421.17 420.042 419.837 419.5 418.5Z" fill="white"/>
<path d="M435 12C435 12 350 47.5 335.5 163.5C335.5 244.465 330.095 252.798 361.215 354L431.598 434.5C398.158 326.651 357.444 226.625 370 196C370 109 435 12 435 12Z" fill="#D1D1D1"/>
<path d="M387 434.5C446.5 616 271 864 271 864H413.5C413.5 864 467 741.5 471 633C471 574.099 452.755 502.734 431.598 434.5L361.215 354C367.955 375.917 376.408 402.19 387 434.5Z" fill="#C1641E"/>
</g>
</svg>
